<svg width="707.902" height="121.601" viewBox="0 0 707.902 121.601" xmlns="http://www.w3.org/2000/svg"><g id="svgGroup" stroke-linecap="round" fill-rule="evenodd" font-size="9pt" stroke="#daa520fc" stroke-width=".25mm" fill="#daa520" style="stroke:#daa520fc;stroke-width:.25mm;fill:#daa520"><path d="M 147.702 23.9 L 152.802 23.9 Q 150.402 24.6 147.102 26.4 Q 143.802 28.2 140.502 30.55 Q 137.202 32.9 134.502 35.5 Q 129.202 41.1 124.802 47.95 Q 120.402 54.8 116.202 62.05 Q 112.002 69.3 107.302 76.25 Q 102.602 83.2 96.702 89 Q 89.402 96.1 79.452 99.7 A 60.389 60.389 0 0 1 64.801 102.949 A 74.054 74.054 0 0 1 57.502 103.3 Q 47.802 103.3 39.802 100.25 A 30.127 30.127 0 0 1 31.638 95.654 A 26.686 26.686 0 0 1 27.052 90.95 A 22.857 22.857 0 0 1 22.838 81.261 A 31.699 31.699 0 0 1 22.302 75.3 Q 22.302 68.8 25.402 63.25 A 29.846 29.846 0 0 1 32.089 55.156 A 35.523 35.523 0 0 1 34.102 53.55 A 40.388 40.388 0 0 1 42.723 48.719 A 49.388 49.388 0 0 1 47.252 47.1 A 53.117 53.117 0 0 1 58.271 45.025 A 64.281 64.281 0 0 1 63.702 44.8 A 75.465 75.465 0 0 1 75.418 45.664 Q 81.864 46.677 87.29 48.882 A 45.531 45.531 0 0 1 88.402 49.35 A 40.431 40.431 0 0 1 97.801 55.002 A 33.616 33.616 0 0 1 104.452 62.25 A 32.794 32.794 0 0 1 109.791 76.824 A 42.068 42.068 0 0 1 110.102 82 Q 110.102 90.7 106.102 97.95 A 37.236 37.236 0 0 1 97.179 108.621 A 44.417 44.417 0 0 1 94.752 110.5 A 52.553 52.553 0 0 1 83.701 116.539 A 65.164 65.164 0 0 1 77.452 118.7 A 72.054 72.054 0 0 1 64.213 121.193 A 90.397 90.397 0 0 1 55.502 121.6 A 68.928 68.928 0 0 1 40.413 119.998 A 60.108 60.108 0 0 1 33.602 118.05 A 57.937 57.937 0 0 1 20.4 111.501 A 52.029 52.029 0 0 1 15.952 108.15 Q 8.402 101.8 4.202 93.35 Q 0.002 84.9 0.002 75 Q 0.002 65.3 4.502 56.85 A 47.084 47.084 0 0 1 15.532 43.218 A 54.359 54.359 0 0 1 17.002 42 Q 25.002 35.6 35.502 32 A 67.485 67.485 0 0 1 53.62 28.527 A 78.458 78.458 0 0 1 58.102 28.4 A 67.351 67.351 0 0 1 68.19 29.119 Q 73.733 29.959 78.448 31.782 A 41.914 41.914 0 0 1 78.752 31.9 A 39.162 39.162 0 0 1 85.981 35.616 A 29.247 29.247 0 0 1 92.602 41.55 Q 97.602 47.7 97.602 55.9 Q 97.602 62.2 94.602 67.65 A 30.023 30.023 0 0 1 87.71 76.021 A 35.199 35.199 0 0 1 86.252 77.2 Q 80.902 81.3 73.802 83.6 A 47.692 47.692 0 0 1 62.539 85.752 A 56.79 56.79 0 0 1 58.402 85.9 A 46.44 46.44 0 0 1 53.1 85.617 Q 47.692 84.994 44.152 83 A 12.508 12.508 0 0 1 41.548 81.093 A 8.054 8.054 0 0 1 39.002 75.1 Q 39.002 70.9 41.852 67.7 A 15.713 15.713 0 0 1 45.642 64.634 Q 47.346 63.629 49.443 62.876 A 27.217 27.217 0 0 1 49.802 62.75 A 31.109 31.109 0 0 1 55.579 61.398 Q 58.32 61.013 61.402 61.001 A 51.047 51.047 0 0 1 61.602 61 A 29.406 29.406 0 0 1 67.472 61.553 Q 71.116 62.296 73.957 64.035 A 17.209 17.209 0 0 1 75.502 65.1 L 74.802 65.9 A 16.248 16.248 0 0 0 68.998 62.945 Q 66.653 62.266 63.858 62.075 A 33.116 33.116 0 0 0 61.602 62 A 42.17 42.17 0 0 0 56.12 62.339 Q 53.004 62.748 50.352 63.65 Q 45.502 65.3 42.752 68.25 Q 40.002 71.2 40.002 75.1 A 7.257 7.257 0 0 0 42.888 80.96 A 12.406 12.406 0 0 0 44.952 82.3 A 19.583 19.583 0 0 0 49.163 83.885 Q 51.341 84.448 53.945 84.699 A 46.567 46.567 0 0 0 58.402 84.9 A 51.521 51.521 0 0 0 68.905 83.861 A 45.191 45.191 0 0 0 73.352 82.7 A 42.341 42.341 0 0 0 81.355 79.267 A 36.096 36.096 0 0 0 85.502 76.55 A 30.723 30.723 0 0 0 91.814 70.175 A 28.074 28.074 0 0 0 93.652 67.3 Q 96.602 62 96.602 55.9 Q 96.602 48 91.752 42.05 A 28.383 28.383 0 0 0 84.429 35.764 A 38.732 38.732 0 0 0 78.252 32.75 Q 69.728 29.449 58.438 29.401 A 78.53 78.53 0 0 0 58.102 29.4 A 69.729 69.729 0 0 0 40.184 31.655 A 63.811 63.811 0 0 0 35.902 32.95 A 62.544 62.544 0 0 0 23.1 38.94 A 54.782 54.782 0 0 0 17.702 42.75 A 48.127 48.127 0 0 0 7.318 54.104 A 44.974 44.974 0 0 0 5.452 57.25 Q 1.002 65.5 1.002 75 Q 1.002 84.6 5.152 92.9 Q 9.302 101.2 16.752 107.45 A 53.874 53.874 0 0 0 31.665 116.244 A 62.185 62.185 0 0 0 34.102 117.15 Q 44.002 120.6 55.502 120.6 A 83.972 83.972 0 0 0 68.743 119.596 A 68.994 68.994 0 0 0 77.052 117.75 Q 86.902 114.9 94.052 109.75 A 39.591 39.591 0 0 0 102.058 102.173 A 35.282 35.282 0 0 0 105.152 97.55 A 31.267 31.267 0 0 0 109.102 82.005 A 21.532 21.532 0 0 0 109.102 82 Q 109.102 70.8 103.552 62.7 A 34.052 34.052 0 0 0 92.357 52.466 A 43.115 43.115 0 0 0 87.852 50.2 A 50.965 50.965 0 0 0 76.361 46.833 Q 71.218 45.929 65.383 45.816 A 86.897 86.897 0 0 0 63.702 45.8 A 60.362 60.362 0 0 0 53.846 46.576 A 50.076 50.076 0 0 0 47.652 48 A 44.629 44.629 0 0 0 39.381 51.369 A 37.647 37.647 0 0 0 34.802 54.25 A 31.97 31.97 0 0 0 29.152 59.518 A 27.36 27.36 0 0 0 26.302 63.65 Q 23.302 69 23.302 75.3 A 22.703 22.703 0 0 0 24.077 81.37 A 17.744 17.744 0 0 0 27.502 88 A 23.342 23.342 0 0 0 34.545 93.702 A 30.742 30.742 0 0 0 39.002 95.65 A 44.346 44.346 0 0 0 47.746 97.695 A 59.859 59.859 0 0 0 55.702 98.2 Q 65.002 98.2 73.152 94.7 Q 81.302 91.2 88.402 85.4 Q 95.502 79.6 101.752 72.55 Q 108.002 65.5 113.552 58.35 Q 119.102 51.2 124.102 44.95 A 99.126 99.126 0 0 1 128.381 39.933 Q 130.424 37.702 132.395 35.874 A 55.06 55.06 0 0 1 133.702 34.7 Q 136.792 31.811 139.251 29.757 A 68.227 68.227 0 0 1 141.502 27.95 A 51.114 51.114 0 0 1 144.942 25.525 A 39.577 39.577 0 0 1 147.702 23.9 Z M 552.302 23.9 L 557.402 23.9 Q 555.002 24.6 551.702 26.4 Q 548.402 28.2 545.102 30.55 Q 541.802 32.9 539.102 35.5 Q 533.802 41.1 529.402 47.95 Q 525.002 54.8 520.802 62.05 Q 516.602 69.3 511.902 76.25 Q 507.202 83.2 501.302 89 Q 494.002 96.1 484.052 99.7 A 60.389 60.389 0 0 1 469.401 102.949 A 74.054 74.054 0 0 1 462.102 103.3 Q 452.402 103.3 444.402 100.25 A 30.127 30.127 0 0 1 436.238 95.654 A 26.686 26.686 0 0 1 431.652 90.95 A 22.857 22.857 0 0 1 427.438 81.261 A 31.699 31.699 0 0 1 426.902 75.3 Q 426.902 68.8 430.002 63.25 A 29.846 29.846 0 0 1 436.689 55.156 A 35.523 35.523 0 0 1 438.702 53.55 A 40.388 40.388 0 0 1 447.323 48.719 A 49.388 49.388 0 0 1 451.852 47.1 A 53.117 53.117 0 0 1 462.871 45.025 A 64.281 64.281 0 0 1 468.302 44.8 A 75.465 75.465 0 0 1 480.018 45.664 Q 486.464 46.677 491.89 48.882 A 45.531 45.531 0 0 1 493.002 49.35 A 40.431 40.431 0 0 1 502.401 55.002 A 33.616 33.616 0 0 1 509.052 62.25 A 32.794 32.794 0 0 1 514.391 76.824 A 42.068 42.068 0 0 1 514.702 82 Q 514.702 90.7 510.702 97.95 A 37.236 37.236 0 0 1 501.779 108.621 A 44.417 44.417 0 0 1 499.352 110.5 A 52.553 52.553 0 0 1 488.301 116.539 A 65.164 65.164 0 0 1 482.052 118.7 A 72.054 72.054 0 0 1 468.813 121.193 A 90.397 90.397 0 0 1 460.102 121.6 A 68.928 68.928 0 0 1 445.013 119.998 A 60.108 60.108 0 0 1 438.202 118.05 A 57.937 57.937 0 0 1 425 111.501 A 52.029 52.029 0 0 1 420.552 108.15 Q 413.002 101.8 408.802 93.35 Q 404.602 84.9 404.602 75 Q 404.602 65.3 409.102 56.85 A 47.084 47.084 0 0 1 420.132 43.218 A 54.359 54.359 0 0 1 421.602 42 Q 429.602 35.6 440.102 32 A 67.485 67.485 0 0 1 458.22 28.527 A 78.458 78.458 0 0 1 462.702 28.4 A 67.351 67.351 0 0 1 472.79 29.119 Q 478.333 29.959 483.048 31.782 A 41.914 41.914 0 0 1 483.352 31.9 A 39.162 39.162 0 0 1 490.581 35.616 A 29.247 29.247 0 0 1 497.202 41.55 Q 502.202 47.7 502.202 55.9 Q 502.202 62.2 499.202 67.65 A 30.023 30.023 0 0 1 492.31 76.021 A 35.199 35.199 0 0 1 490.852 77.2 Q 485.502 81.3 478.402 83.6 A 47.692 47.692 0 0 1 467.139 85.752 A 56.79 56.79 0 0 1 463.002 85.9 A 46.44 46.44 0 0 1 457.7 85.617 Q 452.292 84.994 448.752 83 A 12.508 12.508 0 0 1 446.148 81.093 A 8.054 8.054 0 0 1 443.602 75.1 Q 443.602 70.9 446.452 67.7 A 15.713 15.713 0 0 1 450.242 64.634 Q 451.946 63.629 454.043 62.876 A 27.217 27.217 0 0 1 454.402 62.75 A 31.109 31.109 0 0 1 460.179 61.398 Q 462.92 61.013 466.002 61.001 A 51.047 51.047 0 0 1 466.202 61 A 29.406 29.406 0 0 1 472.072 61.553 Q 475.716 62.296 478.557 64.035 A 17.209 17.209 0 0 1 480.102 65.1 L 479.402 65.9 A 16.248 16.248 0 0 0 473.598 62.945 Q 471.253 62.266 468.458 62.075 A 33.116 33.116 0 0 0 466.202 62 A 42.17 42.17 0 0 0 460.72 62.339 Q 457.604 62.748 454.952 63.65 Q 450.102 65.3 447.352 68.25 Q 444.602 71.2 444.602 75.1 A 7.257 7.257 0 0 0 447.488 80.96 A 12.406 12.406 0 0 0 449.552 82.3 A 19.583 19.583 0 0 0 453.763 83.885 Q 455.941 84.448 458.545 84.699 A 46.567 46.567 0 0 0 463.002 84.9 A 51.521 51.521 0 0 0 473.505 83.861 A 45.191 45.191 0 0 0 477.952 82.7 A 42.341 42.341 0 0 0 485.955 79.267 A 36.096 36.096 0 0 0 490.102 76.55 A 30.723 30.723 0 0 0 496.414 70.175 A 28.074 28.074 0 0 0 498.252 67.3 Q 501.202 62 501.202 55.9 Q 501.202 48 496.352 42.05 A 28.383 28.383 0 0 0 489.029 35.764 A 38.732 38.732 0 0 0 482.852 32.75 Q 474.328 29.449 463.038 29.401 A 78.53 78.53 0 0 0 462.702 29.4 A 69.729 69.729 0 0 0 444.784 31.655 A 63.811 63.811 0 0 0 440.502 32.95 A 62.544 62.544 0 0 0 427.7 38.94 A 54.782 54.782 0 0 0 422.302 42.75 A 48.127 48.127 0 0 0 411.918 54.104 A 44.974 44.974 0 0 0 410.052 57.25 Q 405.602 65.5 405.602 75 Q 405.602 84.6 409.752 92.9 Q 413.902 101.2 421.352 107.45 A 53.874 53.874 0 0 0 436.265 116.244 A 62.185 62.185 0 0 0 438.702 117.15 Q 448.602 120.6 460.102 120.6 A 83.972 83.972 0 0 0 473.343 119.596 A 68.994 68.994 0 0 0 481.652 117.75 Q 491.502 114.9 498.652 109.75 A 39.591 39.591 0 0 0 506.658 102.173 A 35.282 35.282 0 0 0 509.752 97.55 A 31.267 31.267 0 0 0 513.702 82.005 A 21.532 21.532 0 0 0 513.702 82 Q 513.702 70.8 508.152 62.7 A 34.052 34.052 0 0 0 496.957 52.466 A 43.115 43.115 0 0 0 492.452 50.2 A 50.965 50.965 0 0 0 480.961 46.833 Q 475.818 45.929 469.983 45.816 A 86.897 86.897 0 0 0 468.302 45.8 A 60.362 60.362 0 0 0 458.446 46.576 A 50.076 50.076 0 0 0 452.252 48 A 44.629 44.629 0 0 0 443.981 51.369 A 37.647 37.647 0 0 0 439.402 54.25 A 31.97 31.97 0 0 0 433.752 59.518 A 27.36 27.36 0 0 0 430.902 63.65 Q 427.902 69 427.902 75.3 A 22.703 22.703 0 0 0 428.677 81.37 A 17.744 17.744 0 0 0 432.102 88 A 23.342 23.342 0 0 0 439.145 93.702 A 30.742 30.742 0 0 0 443.602 95.65 A 44.346 44.346 0 0 0 452.346 97.695 A 59.859 59.859 0 0 0 460.302 98.2 Q 469.602 98.2 477.752 94.7 Q 485.902 91.2 493.002 85.4 Q 500.102 79.6 506.352 72.55 Q 512.602 65.5 518.152 58.35 Q 523.702 51.2 528.702 44.95 A 99.126 99.126 0 0 1 532.981 39.933 Q 535.024 37.702 536.995 35.874 A 55.06 55.06 0 0 1 538.302 34.7 Q 541.392 31.811 543.851 29.757 A 68.227 68.227 0 0 1 546.102 27.95 A 51.114 51.114 0 0 1 549.542 25.525 A 39.577 39.577 0 0 1 552.302 23.9 Z M 149.102 24.3 L 150.302 24.6 A 14.027 14.027 0 0 0 147.466 27.107 Q 145.953 28.833 144.652 31.25 A 58.238 58.238 0 0 0 142.432 35.879 Q 141.369 38.353 140.382 41.184 A 97.379 97.379 0 0 0 140.102 42 Q 138.002 48.2 135.952 55.1 Q 133.902 62 131.552 68.85 Q 129.202 75.7 126.252 81.65 A 45.666 45.666 0 0 1 122.849 87.45 A 35.851 35.851 0 0 1 119.402 91.7 A 39.189 39.189 0 0 1 118.527 92.55 Q 116.77 94.2 116.202 94.2 A 1.008 1.008 0 0 1 115.925 94.166 Q 115.614 94.077 115.531 93.76 A 1.031 1.031 0 0 1 115.502 93.5 Q 115.502 90.5 118.352 85.45 A 61.183 61.183 0 0 1 121.038 81.149 Q 122.435 79.094 124.142 76.874 A 119.73 119.73 0 0 1 126.302 74.15 A 145.946 145.946 0 0 1 132.561 66.993 A 185.718 185.718 0 0 1 138.152 61.25 Q 144.902 54.6 152.702 48.3 Q 160.502 42 168.702 36.85 A 110.905 110.905 0 0 1 179.929 30.644 A 95.377 95.377 0 0 1 185.002 28.4 Q 193.102 25.1 200.402 24.5 A 638.05 638.05 0 0 0 205.68 23.919 Q 213.039 23.075 217.052 22.4 Q 222.402 21.5 222.402 19.6 Q 222.402 19.101 221.353 18.651 A 5.463 5.463 0 0 0 221.352 18.65 A 4.886 4.886 0 0 0 220.432 18.367 Q 219.985 18.273 219.462 18.232 A 10.998 10.998 0 0 0 218.602 18.2 Q 211.702 18.2 204.552 21.5 A 71.543 71.543 0 0 0 194.791 27.007 A 85.105 85.105 0 0 0 190.402 30.15 Q 183.402 35.5 177.002 41.6 Q 170.602 47.7 165.002 53.4 Q 159.602 59.2 154.452 65.75 A 133.163 133.163 0 0 0 146.281 77.328 A 121.59 121.59 0 0 0 145.252 79 A 85.784 85.784 0 0 0 140.928 87.055 A 69.996 69.996 0 0 0 138.802 92.1 A 40.493 40.493 0 0 0 137.079 97.925 A 29.816 29.816 0 0 0 136.402 104.1 A 19.466 19.466 0 0 0 136.667 107.42 Q 136.98 109.227 137.663 110.682 A 9.848 9.848 0 0 0 138.652 112.35 A 7.122 7.122 0 0 0 143.795 115.347 A 9.201 9.201 0 0 0 144.802 115.4 A 10.953 10.953 0 0 0 151.751 112.921 A 13.7 13.7 0 0 0 151.902 112.8 L 152.202 113.5 Q 149.102 116.4 144.702 116.4 A 10.121 10.121 0 0 1 137.076 113.156 A 12.872 12.872 0 0 1 136.452 112.45 A 14.006 14.006 0 0 1 133.523 106.024 A 19.557 19.557 0 0 1 133.202 102.4 Q 133.202 97.178 135.629 91.227 A 42.108 42.108 0 0 1 135.702 91.05 A 71.018 71.018 0 0 1 139.848 82.684 A 84.524 84.524 0 0 1 142.202 78.85 Q 146.202 72.7 150.852 66.95 A 223.141 223.141 0 0 1 156.566 60.153 A 182.635 182.635 0 0 1 159.902 56.45 Q 162.927 53.185 165.384 50.699 A 138.97 138.97 0 0 1 167.502 48.6 Q 172.602 43.8 178.702 38.4 Q 184.802 33 191.452 28.15 A 79.567 79.567 0 0 1 200.643 22.332 A 68.12 68.12 0 0 1 204.852 20.25 A 35.654 35.654 0 0 1 211.822 17.893 A 28.531 28.531 0 0 1 218.002 17.2 Q 221.102 17.2 223.152 17.8 A 6.603 6.603 0 0 1 223.9 18.065 Q 224.677 18.398 224.99 18.845 A 1.118 1.118 0 0 1 225.202 19.5 A 2.043 2.043 0 0 1 224.635 20.894 Q 224.343 21.22 223.9 21.512 A 6.582 6.582 0 0 1 223.002 22 A 12.011 12.011 0 0 1 221.607 22.518 Q 220.102 22.985 217.818 23.403 A 72.01 72.01 0 0 1 215.402 23.8 Q 210.002 24.6 200.402 25.5 A 45.82 45.82 0 0 0 191.941 27.063 A 59.832 59.832 0 0 0 185.452 29.3 A 99.093 99.093 0 0 0 174.587 34.551 A 116.644 116.644 0 0 0 169.602 37.5 Q 161.602 42.5 154.002 48.6 A 203.155 203.155 0 0 0 140.63 60.302 A 186.421 186.421 0 0 0 139.802 61.1 Q 133.202 67.5 128.202 73.45 A 115.019 115.019 0 0 0 124.761 77.737 Q 122.152 81.163 120.402 84.1 Q 118.204 87.788 117.731 90.245 A 6.664 6.664 0 0 0 117.602 91.5 A 0.601 0.601 0 0 0 117.605 91.567 Q 117.612 91.634 117.637 91.667 A 0.076 0.076 0 0 0 117.702 91.7 Q 118.002 91.7 118.952 90.4 A 60.234 60.234 0 0 0 119.821 89.177 Q 120.259 88.545 120.732 87.834 A 104.366 104.366 0 0 0 121.052 87.35 Q 122.202 85.6 123.202 84.1 Q 126.602 78.9 128.302 72.95 Q 130.002 67 131.252 60.7 Q 132.502 54.4 134.302 48.05 A 55.559 55.559 0 0 1 139.498 35.745 A 61.187 61.187 0 0 1 139.552 35.65 Q 143.002 29.6 149.102 24.3 Z M 553.702 24.3 L 554.902 24.6 A 14.027 14.027 0 0 0 552.066 27.107 Q 550.553 28.833 549.252 31.25 A 58.238 58.238 0 0 0 547.032 35.879 Q 545.969 38.353 544.982 41.184 A 97.379 97.379 0 0 0 544.702 42 Q 542.602 48.2 540.552 55.1 Q 538.502 62 536.152 68.85 Q 533.802 75.7 530.852 81.65 A 45.666 45.666 0 0 1 527.449 87.45 A 35.851 35.851 0 0 1 524.002 91.7 A 39.189 39.189 0 0 1 523.127 92.55 Q 521.37 94.2 520.802 94.2 A 1.008 1.008 0 0 1 520.525 94.166 Q 520.214 94.077 520.131 93.76 A 1.031 1.031 0 0 1 520.102 93.5 Q 520.102 90.5 522.952 85.45 A 61.183 61.183 0 0 1 525.638 81.149 Q 527.035 79.094 528.742 76.874 A 119.73 119.73 0 0 1 530.902 74.15 A 145.946 145.946 0 0 1 537.161 66.993 A 185.718 185.718 0 0 1 542.752 61.25 Q 549.502 54.6 557.302 48.3 Q 565.102 42 573.302 36.85 A 110.905 110.905 0 0 1 584.529 30.644 A 95.377 95.377 0 0 1 589.602 28.4 Q 597.702 25.1 605.002 24.5 A 638.05 638.05 0 0 0 610.28 23.919 Q 617.639 23.075 621.652 22.4 Q 627.002 21.5 627.002 19.6 Q 627.002 19.101 625.953 18.651 A 5.463 5.463 0 0 0 625.952 18.65 A 4.886 4.886 0 0 0 625.032 18.367 Q 624.585 18.273 624.062 18.232 A 10.998 10.998 0 0 0 623.202 18.2 Q 616.302 18.2 609.152 21.5 A 71.543 71.543 0 0 0 599.391 27.007 A 85.105 85.105 0 0 0 595.002 30.15 Q 588.002 35.5 581.602 41.6 Q 575.202 47.7 569.602 53.4 Q 564.202 59.2 559.052 65.75 A 133.163 133.163 0 0 0 550.881 77.328 A 121.59 121.59 0 0 0 549.852 79 A 85.784 85.784 0 0 0 545.528 87.055 A 69.996 69.996 0 0 0 543.402 92.1 A 40.493 40.493 0 0 0 541.679 97.925 A 29.816 29.816 0 0 0 541.002 104.1 A 19.466 19.466 0 0 0 541.267 107.42 Q 541.58 109.227 542.263 110.682 A 9.848 9.848 0 0 0 543.252 112.35 A 7.122 7.122 0 0 0 548.395 115.347 A 9.201 9.201 0 0 0 549.402 115.4 A 10.953 10.953 0 0 0 556.351 112.921 A 13.7 13.7 0 0 0 556.502 112.8 L 556.802 113.5 Q 553.702 116.4 549.302 116.4 A 10.121 10.121 0 0 1 541.676 113.156 A 12.872 12.872 0 0 1 541.052 112.45 A 14.006 14.006 0 0 1 538.123 106.024 A 19.557 19.557 0 0 1 537.802 102.4 Q 537.802 97.178 540.229 91.227 A 42.108 42.108 0 0 1 540.302 91.05 A 71.018 71.018 0 0 1 544.448 82.684 A 84.524 84.524 0 0 1 546.802 78.85 Q 550.802 72.7 555.452 66.95 A 223.141 223.141 0 0 1 561.166 60.153 A 182.635 182.635 0 0 1 564.502 56.45 Q 567.527 53.185 569.984 50.699 A 138.97 138.97 0 0 1 572.102 48.6 Q 577.202 43.8 583.302 38.4 Q 589.402 33 596.052 28.15 A 79.567 79.567 0 0 1 605.243 22.332 A 68.12 68.12 0 0 1 609.452 20.25 A 35.654 35.654 0 0 1 616.422 17.893 A 28.531 28.531 0 0 1 622.602 17.2 Q 625.702 17.2 627.752 17.8 A 6.603 6.603 0 0 1 628.5 18.065 Q 629.277 18.398 629.59 18.845 A 1.118 1.118 0 0 1 629.802 19.5 A 2.043 2.043 0 0 1 629.235 20.894 Q 628.943 21.22 628.5 21.512 A 6.582 6.582 0 0 1 627.602 22 A 12.011 12.011 0 0 1 626.207 22.518 Q 624.702 22.985 622.418 23.403 A 72.01 72.01 0 0 1 620.002 23.8 Q 614.602 24.6 605.002 25.5 A 45.82 45.82 0 0 0 596.541 27.063 A 59.832 59.832 0 0 0 590.052 29.3 A 99.093 99.093 0 0 0 579.187 34.551 A 116.644 116.644 0 0 0 574.202 37.5 Q 566.202 42.5 558.602 48.6 A 203.155 203.155 0 0 0 545.23 60.302 A 186.421 186.421 0 0 0 544.402 61.1 Q 537.802 67.5 532.802 73.45 A 115.019 115.019 0 0 0 529.361 77.737 Q 526.752 81.163 525.002 84.1 Q 522.804 87.788 522.331 90.245 A 6.664 6.664 0 0 0 522.202 91.5 A 0.601 0.601 0 0 0 522.205 91.567 Q 522.212 91.634 522.237 91.667 A 0.076 0.076 0 0 0 522.302 91.7 Q 522.602 91.7 523.552 90.4 A 60.234 60.234 0 0 0 524.421 89.177 Q 524.859 88.545 525.332 87.834 A 104.366 104.366 0 0 0 525.652 87.35 Q 526.802 85.6 527.802 84.1 Q 531.202 78.9 532.902 72.95 Q 534.602 67 535.852 60.7 Q 537.102 54.4 538.902 48.05 A 55.559 55.559 0 0 1 544.098 35.745 A 61.187 61.187 0 0 1 544.152 35.65 Q 547.602 29.6 553.702 24.3 Z M 148.002 23.9 L 148.002 25 Q 145.455 25.091 141.586 23.156 A 32.952 32.952 0 0 1 140.802 22.75 A 150.099 150.099 0 0 1 136.722 20.484 Q 133.952 18.891 130.802 16.95 Q 125.202 13.5 118.652 10.05 Q 112.102 6.6 105.052 4.25 Q 98.002 1.9 90.802 1.9 A 69.5 69.5 0 0 0 79.002 2.869 A 59.55 59.55 0 0 0 73.252 4.15 A 53.338 53.338 0 0 0 64.731 7.267 A 43.236 43.236 0 0 0 59.002 10.5 A 35.316 35.316 0 0 0 53.137 15.388 A 28.834 28.834 0 0 0 49.502 20.05 Q 46.102 25.5 46.102 31.8 A 19.79 19.79 0 0 0 47.24 38.599 A 17.89 17.89 0 0 0 49.802 43.3 A 21.949 21.949 0 0 0 55.794 48.696 A 29.356 29.356 0 0 0 60.252 50.95 A 36.159 36.159 0 0 0 68.463 53.165 A 49.295 49.295 0 0 0 75.902 53.7 Q 83.302 53.7 89.352 51.05 Q 95.402 48.4 99.002 43.95 A 16.157 16.157 0 0 0 101.912 38.644 A 14.988 14.988 0 0 0 102.602 34.1 A 13.285 13.285 0 0 0 101.983 29.991 A 11.758 11.758 0 0 0 100.752 27.35 A 10.244 10.244 0 0 0 95.886 23.291 A 12.795 12.795 0 0 0 95.402 23.1 L 96.002 22.3 A 13.716 13.716 0 0 1 99.453 24.41 A 11.787 11.787 0 0 1 101.702 26.95 A 12.209 12.209 0 0 1 103.606 32.357 A 15.516 15.516 0 0 1 103.702 34.1 Q 103.702 39.8 100.002 44.45 A 23.51 23.51 0 0 1 94.004 49.735 A 30.412 30.412 0 0 1 89.952 51.85 A 33.462 33.462 0 0 1 80.074 54.383 A 41.048 41.048 0 0 1 75.802 54.6 A 56.786 56.786 0 0 1 68.786 54.193 Q 65.106 53.734 62.032 52.758 A 27.007 27.007 0 0 1 58.052 51.15 A 28.752 28.752 0 0 1 52.829 47.816 A 21.072 21.072 0 0 1 47.952 42.25 A 22.847 22.847 0 0 1 45.121 35.083 A 20.917 20.917 0 0 1 44.702 30.9 Q 44.702 25.2 47.702 19.7 A 29.723 29.723 0 0 1 52.823 12.934 A 37.901 37.901 0 0 1 56.452 9.75 A 39.429 39.429 0 0 1 63.661 5.367 A 53.433 53.433 0 0 1 70.652 2.65 Q 79.102 0 89.902 0 Q 96.002 0 102.002 1.75 Q 108.002 3.5 113.752 6.25 Q 119.502 9 124.752 12.05 Q 130.002 15.1 134.452 17.8 Q 138.902 20.5 142.352 22.2 A 24.625 24.625 0 0 0 144.193 23.022 Q 146.42 23.9 148.002 23.9 Z M 552.602 23.9 L 552.602 25 Q 550.055 25.091 546.186 23.156 A 32.952 32.952 0 0 1 545.402 22.75 A 150.099 150.099 0 0 1 541.322 20.484 Q 538.552 18.891 535.402 16.95 Q 529.802 13.5 523.252 10.05 Q 516.702 6.6 509.652 4.25 Q 502.602 1.9 495.402 1.9 A 69.5 69.5 0 0 0 483.602 2.869 A 59.55 59.55 0 0 0 477.852 4.15 A 53.338 53.338 0 0 0 469.331 7.267 A 43.236 43.236 0 0 0 463.602 10.5 A 35.316 35.316 0 0 0 457.737 15.388 A 28.834 28.834 0 0 0 454.102 20.05 Q 450.702 25.5 450.702 31.8 A 19.79 19.79 0 0 0 451.84 38.599 A 17.89 17.89 0 0 0 454.402 43.3 A 21.949 21.949 0 0 0 460.394 48.696 A 29.356 29.356 0 0 0 464.852 50.95 A 36.159 36.159 0 0 0 473.063 53.165 A 49.295 49.295 0 0 0 480.502 53.7 Q 487.902 53.7 493.952 51.05 Q 500.002 48.4 503.602 43.95 A 16.157 16.157 0 0 0 506.512 38.644 A 14.988 14.988 0 0 0 507.202 34.1 A 13.285 13.285 0 0 0 506.583 29.991 A 11.758 11.758 0 0 0 505.352 27.35 A 10.244 10.244 0 0 0 500.486 23.291 A 12.795 12.795 0 0 0 500.002 23.1 L 500.602 22.3 A 13.716 13.716 0 0 1 504.053 24.41 A 11.787 11.787 0 0 1 506.302 26.95 A 12.209 12.209 0 0 1 508.206 32.357 A 15.516 15.516 0 0 1 508.302 34.1 Q 508.302 39.8 504.602 44.45 A 23.51 23.51 0 0 1 498.604 49.735 A 30.412 30.412 0 0 1 494.552 51.85 A 33.462 33.462 0 0 1 484.674 54.383 A 41.048 41.048 0 0 1 480.402 54.6 A 56.786 56.786 0 0 1 473.386 54.193 Q 469.706 53.734 466.632 52.758 A 27.007 27.007 0 0 1 462.652 51.15 A 28.752 28.752 0 0 1 457.429 47.816 A 21.072 21.072 0 0 1 452.552 42.25 A 22.847 22.847 0 0 1 449.721 35.083 A 20.917 20.917 0 0 1 449.302 30.9 Q 449.302 25.2 452.302 19.7 A 29.723 29.723 0 0 1 457.423 12.934 A 37.901 37.901 0 0 1 461.052 9.75 A 39.429 39.429 0 0 1 468.261 5.367 A 53.433 53.433 0 0 1 475.252 2.65 Q 483.702 0 494.502 0 Q 500.602 0 506.602 1.75 Q 512.602 3.5 518.352 6.25 Q 524.102 9 529.352 12.05 Q 534.602 15.1 539.052 17.8 Q 543.502 20.5 546.952 22.2 A 24.625 24.625 0 0 0 548.793 23.022 Q 551.02 23.9 552.602 23.9 Z M 257.902 80.1 L 259.102 78.8 L 260.102 78.8 L 259.202 79.8 Q 255.002 84.5 250.052 88.35 Q 245.102 92.2 240.452 94.4 A 29.748 29.748 0 0 1 237.535 95.607 Q 234.686 96.6 232.402 96.6 A 5.9 5.9 0 0 1 230.462 96.295 A 4.963 4.963 0 0 1 228.252 94.75 A 6.251 6.251 0 0 1 227.042 92.404 Q 226.787 91.501 226.723 90.432 A 12.274 12.274 0 0 1 226.702 89.7 Q 226.702 86.545 228.549 83.097 A 20.65 20.65 0 0 1 228.602 83 A 30.579 30.579 0 0 1 231.465 78.684 A 38.146 38.146 0 0 1 233.652 76.15 Q 236.802 72.8 240.752 70.1 A 40.402 40.402 0 0 1 247.302 66.439 A 36.536 36.536 0 0 1 248.852 65.8 A 24.876 24.876 0 0 1 253.1 64.564 A 19.584 19.584 0 0 1 256.802 64.2 A 6.694 6.694 0 0 1 257.882 64.282 Q 258.843 64.44 259.502 64.9 Q 260.502 65.6 260.502 66.7 A 4.371 4.371 0 0 1 260.068 68.542 Q 259.762 69.204 259.24 69.885 A 11.515 11.515 0 0 1 258.152 71.1 A 22.182 22.182 0 0 1 255.558 73.258 Q 254.209 74.226 252.587 75.133 A 38.1 38.1 0 0 1 252.102 75.4 Q 248.402 77.4 244.202 78.7 A 29.875 29.875 0 0 1 239.603 79.752 A 24.003 24.003 0 0 1 236.202 80 L 237.102 79.1 A 29.185 29.185 0 0 0 242.17 78.353 A 34.762 34.762 0 0 0 244.552 77.7 A 35.55 35.55 0 0 0 251.287 74.835 A 33.021 33.021 0 0 0 251.702 74.6 A 31.898 31.898 0 0 0 254.359 72.9 Q 255.628 71.991 256.645 71.041 A 18.508 18.508 0 0 0 257.102 70.6 Q 259.202 68.5 259.202 66.7 A 1.711 1.711 0 0 0 259.058 65.972 Q 258.719 65.245 257.584 65.124 A 4.577 4.577 0 0 0 257.102 65.1 A 7.171 7.171 0 0 0 255.316 65.349 Q 253.664 65.775 251.611 66.935 A 26.506 26.506 0 0 0 251.152 67.2 Q 247.602 69.3 243.802 72.6 Q 240.002 75.9 236.702 79.75 A 58.649 58.649 0 0 0 233.798 83.41 Q 232.409 85.32 231.352 87.15 A 21.684 21.684 0 0 0 230.315 89.166 Q 229.345 91.345 229.303 93.049 A 6.215 6.215 0 0 0 229.302 93.2 A 3.607 3.607 0 0 0 229.472 94.359 Q 230.018 95.97 232.313 96 A 6.718 6.718 0 0 0 232.402 96 A 12.866 12.866 0 0 0 235.206 95.667 Q 237.455 95.164 240.102 93.9 A 45.221 45.221 0 0 0 244.861 91.246 A 60.601 60.601 0 0 0 249.202 88.2 Q 253.902 84.6 257.902 80.1 Z M 678.902 80.1 L 680.102 78.8 L 681.102 78.8 L 680.202 79.8 Q 676.002 84.5 671.052 88.35 Q 666.102 92.2 661.452 94.4 A 29.748 29.748 0 0 1 658.535 95.607 Q 655.686 96.6 653.402 96.6 A 5.9 5.9 0 0 1 651.462 96.295 A 4.963 4.963 0 0 1 649.252 94.75 A 6.251 6.251 0 0 1 648.042 92.404 Q 647.787 91.501 647.723 90.432 A 12.274 12.274 0 0 1 647.702 89.7 Q 647.702 86.545 649.549 83.097 A 20.65 20.65 0 0 1 649.602 83 A 30.579 30.579 0 0 1 652.465 78.684 A 38.146 38.146 0 0 1 654.652 76.15 Q 657.802 72.8 661.752 70.1 A 40.402 40.402 0 0 1 668.302 66.439 A 36.536 36.536 0 0 1 669.852 65.8 A 24.876 24.876 0 0 1 674.1 64.564 A 19.584 19.584 0 0 1 677.802 64.2 A 6.694 6.694 0 0 1 678.882 64.282 Q 679.843 64.44 680.502 64.9 Q 681.502 65.6 681.502 66.7 A 4.371 4.371 0 0 1 681.068 68.542 Q 680.762 69.204 680.24 69.885 A 11.515 11.515 0 0 1 679.152 71.1 A 22.182 22.182 0 0 1 676.558 73.258 Q 675.209 74.226 673.587 75.133 A 38.1 38.1 0 0 1 673.102 75.4 Q 669.402 77.4 665.202 78.7 A 29.875 29.875 0 0 1 660.603 79.752 A 24.003 24.003 0 0 1 657.202 80 L 658.102 79.1 A 29.185 29.185 0 0 0 663.17 78.353 A 34.762 34.762 0 0 0 665.552 77.7 A 35.55 35.55 0 0 0 672.287 74.835 A 33.021 33.021 0 0 0 672.702 74.6 A 31.898 31.898 0 0 0 675.359 72.9 Q 676.628 71.991 677.645 71.041 A 18.508 18.508 0 0 0 678.102 70.6 Q 680.202 68.5 680.202 66.7 A 1.711 1.711 0 0 0 680.058 65.972 Q 679.719 65.245 678.584 65.124 A 4.577 4.577 0 0 0 678.102 65.1 A 7.171 7.171 0 0 0 676.316 65.349 Q 674.664 65.775 672.611 66.935 A 26.506 26.506 0 0 0 672.152 67.2 Q 668.602 69.3 664.802 72.6 Q 661.002 75.9 657.702 79.75 A 58.649 58.649 0 0 0 654.798 83.41 Q 653.409 85.32 652.352 87.15 A 21.684 21.684 0 0 0 651.315 89.166 Q 650.345 91.345 650.303 93.049 A 6.215 6.215 0 0 0 650.302 93.2 A 3.607 3.607 0 0 0 650.472 94.359 Q 651.018 95.97 653.313 96 A 6.718 6.718 0 0 0 653.402 96 A 12.866 12.866 0 0 0 656.206 95.667 Q 658.455 95.164 661.102 93.9 A 45.221 45.221 0 0 0 665.861 91.246 A 60.601 60.601 0 0 0 670.202 88.2 Q 674.902 84.6 678.902 80.1 Z M 355.202 85.9 A 163.54 163.54 0 0 1 356.883 84.094 A 185.2 185.2 0 0 1 362.302 78.6 Q 366.102 74.9 369.902 71.8 Q 373.702 68.7 376.802 66.8 A 24.306 24.306 0 0 1 377.783 66.228 Q 380.197 64.9 381.702 64.9 A 3.874 3.874 0 0 1 381.952 64.908 Q 383.502 65.009 383.502 66.4 Q 383.502 68 381.452 70.2 A 47.904 47.904 0 0 1 380.433 71.259 Q 379.536 72.164 378.479 73.146 A 92.362 92.362 0 0 1 376.302 75.1 Q 373.202 77.8 370.152 80.7 A 44.212 44.212 0 0 0 367.838 83.065 A 34.792 34.792 0 0 0 365.052 86.55 Q 364.123 87.887 363.615 89.193 A 8.53 8.53 0 0 0 363.002 92.3 A 5.669 5.669 0 0 0 363.01 92.606 A 4.388 4.388 0 0 0 364.102 95.35 A 4.455 4.455 0 0 0 364.707 95.926 A 3.018 3.018 0 0 0 366.602 96.6 A 5.624 5.624 0 0 0 367.439 96.534 Q 368.882 96.316 370.816 95.387 A 27.266 27.266 0 0 0 372.752 94.35 A 40.836 40.836 0 0 0 373.848 93.686 Q 375.511 92.643 377.281 91.323 A 73.413 73.413 0 0 0 381.052 88.3 A 75.899 75.899 0 0 0 382.159 87.336 A 83.187 83.187 0 0 0 389.602 79.8 L 390.502 78.8 L 389.502 78.8 L 388.302 80.1 Q 384.602 84.3 380.352 87.9 A 91.816 91.816 0 0 1 379.168 88.886 Q 375.588 91.817 372.452 93.75 A 29.235 29.235 0 0 1 371.095 94.54 Q 369.375 95.476 368.096 95.812 A 5.145 5.145 0 0 1 366.802 96 A 4.545 4.545 0 0 1 366.742 96 Q 365.187 95.98 364.817 94.887 A 2.451 2.451 0 0 1 364.702 94.1 Q 364.702 92.778 365.834 91.187 A 12.656 12.656 0 0 1 366.802 90 A 39.344 39.344 0 0 1 367.662 89.089 Q 368.652 88.071 369.837 86.989 A 71.909 71.909 0 0 1 372.052 85.05 Q 375.202 82.4 378.352 79.6 A 43.001 43.001 0 0 0 380.907 77.141 A 33.043 33.043 0 0 0 383.602 73.95 Q 385.702 71.1 385.702 68.3 A 6.768 6.768 0 0 0 385.688 67.87 Q 385.575 66.095 384.502 65.2 Q 383.302 64.2 381.802 64.2 Q 380.333 64.2 378.163 65.279 A 22.841 22.841 0 0 0 376.502 66.2 A 47.193 47.193 0 0 0 375.188 67.027 Q 373.715 67.987 372.123 69.169 A 85.642 85.642 0 0 0 369.252 71.4 Q 365.302 74.6 361.352 78.4 A 152.253 152.253 0 0 0 359.181 80.53 A 131.049 131.049 0 0 0 354.102 85.9 L 355.202 85.9 Z M 339.702 78.8 Q 332.802 86.6 332.802 92.7 Q 332.802 96.6 336.302 96.6 Q 339.502 96.6 344.252 92.8 Q 349.002 89 357.102 79.8 L 358.002 78.8 L 357.002 78.8 L 355.802 80.1 A 388.935 388.935 0 0 1 355.563 80.365 Q 350.323 86.177 346.852 89.55 Q 344.411 91.922 342.514 93.372 A 21.076 21.076 0 0 1 340.902 94.5 A 13.432 13.432 0 0 1 339.688 95.178 Q 338.008 96 336.602 96 A 2.511 2.511 0 0 1 336.331 95.986 Q 335.139 95.857 334.876 94.54 A 4.311 4.311 0 0 1 334.802 93.7 Q 334.802 91.903 336.041 89.461 A 23.403 23.403 0 0 1 337.202 87.45 Q 339.602 83.7 345.402 77.2 Q 353.202 68.5 360.602 60.8 A 639.977 639.977 0 0 1 362.653 58.675 Q 365.686 55.548 368.452 52.786 A 365.558 365.558 0 0 1 373.902 47.45 A 199.334 199.334 0 0 1 376.55 44.957 Q 380.561 41.255 383.002 39.5 Q 380.802 40.1 378.602 40.4 A 40.777 40.777 0 0 1 377.993 40.479 Q 377.094 40.588 376.285 40.643 A 23.26 23.26 0 0 1 374.702 40.7 Q 369.952 45.7 366.139 49.724 A 5542.889 5542.889 0 0 0 361.902 54.2 Q 356.702 59.7 353.302 63.35 Q 349.902 67 347.602 69.55 Q 345.302 72.1 343.502 74.25 Q 341.702 76.4 339.702 78.8 Z M 706.702 78.8 L 705.802 79.8 A 53.952 53.952 0 0 1 700.291 85.139 A 40.329 40.329 0 0 1 694.402 89.25 A 27.544 27.544 0 0 1 689.096 91.598 A 20.841 20.841 0 0 1 682.802 92.6 A 40.864 40.864 0 0 0 679.773 92.706 Q 678.317 92.814 677.069 93.034 A 19.155 19.155 0 0 0 675.602 93.35 A 11.867 11.867 0 0 0 674.616 93.647 Q 673.014 94.215 672.752 94.99 A 0.965 0.965 0 0 0 672.702 95.3 A 0.579 0.579 0 0 0 673.055 95.854 Q 673.318 95.983 673.776 95.998 A 3.791 3.791 0 0 0 673.902 96 A 15.395 15.395 0 0 0 681.206 94.131 A 18.363 18.363 0 0 0 681.802 93.8 A 25.192 25.192 0 0 0 687.312 89.447 A 29.674 29.674 0 0 0 688.702 87.9 Q 691.802 84.2 693.602 79.6 Q 695.402 75 695.402 70.2 Q 695.402 67.606 695.762 65.572 A 18.097 18.097 0 0 1 695.852 65.1 A 12.483 12.483 0 0 1 696.581 62.778 Q 697.02 61.733 697.665 60.645 A 20.666 20.666 0 0 1 697.752 60.5 A 20.704 20.704 0 0 1 698.943 58.756 Q 699.605 57.878 700.445 56.914 A 51.893 51.893 0 0 1 702.302 54.9 L 707.802 51.8 Q 704.834 54.026 702.988 55.606 A 41.662 41.662 0 0 0 702.252 56.25 A 23.716 23.716 0 0 0 701.145 57.305 Q 700.106 58.367 699.558 59.257 A 6.464 6.464 0 0 0 699.502 59.35 Q 698.702 60.7 698.702 62.3 A 12.169 12.169 0 0 0 698.754 63.369 Q 698.85 64.446 699.12 65.915 A 50.353 50.353 0 0 0 699.302 66.85 Q 699.902 69.8 699.902 72.8 A 17.869 17.869 0 0 1 698.3 80.119 A 21.516 21.516 0 0 1 697.652 81.45 Q 695.402 85.7 691.652 89.1 Q 687.902 92.5 683.352 94.55 A 22.674 22.674 0 0 1 675.859 96.528 A 21.421 21.421 0 0 1 674.102 96.6 A 5.075 5.075 0 0 1 673.388 96.555 Q 672.002 96.357 672.002 95.3 A 1.422 1.422 0 0 1 672.402 94.346 Q 673.116 93.541 675.102 92.9 A 18.831 18.831 0 0 1 677.966 92.235 Q 679.433 92.005 681.121 91.933 A 37.201 37.201 0 0 1 682.702 91.9 Q 691.807 91.9 700.643 83.96 A 53.476 53.476 0 0 0 704.502 80.1 L 705.702 78.8 L 706.702 78.8 Z M 190.102 78.8 L 191.102 78.8 L 192.302 77.5 Q 195.302 74.2 198.602 71.5 A 65.511 65.511 0 0 1 199.521 70.762 Q 200.886 69.685 202.172 68.795 A 37.984 37.984 0 0 1 204.752 67.15 A 23.235 23.235 0 0 1 205.992 66.478 Q 207.947 65.5 209.102 65.5 Q 210.602 65.5 210.602 67 A 5.126 5.126 0 0 1 210.467 68.159 Q 210.09 69.791 208.652 71.45 A 29.62 29.62 0 0 1 208.229 71.927 Q 207.29 72.965 206.141 74.045 A 51.835 51.835 0 0 1 203.752 76.15 Q 200.802 78.6 197.902 81.3 A 36.945 36.945 0 0 0 196.101 83.094 A 30.444 30.444 0 0 0 193.052 86.9 A 13.062 13.062 0 0 0 192.568 87.676 A 10.53 10.53 0 0 0 191.102 93 A 4.854 4.854 0 0 0 191.181 93.897 A 3.439 3.439 0 0 0 192.002 95.6 A 2.895 2.895 0 0 0 193.321 96.448 A 3.648 3.648 0 0 0 194.402 96.6 A 5.844 5.844 0 0 0 195.129 96.552 Q 196.516 96.378 198.39 95.571 A 27.184 27.184 0 0 0 200.302 94.65 Q 202.383 93.553 204.638 92.045 A 70.297 70.297 0 0 0 208.252 89.45 Q 212.502 86.2 216.102 82.4 L 216.002 80.6 Q 212.302 84.5 208.102 88.05 A 85.121 85.121 0 0 1 206.931 89.022 Q 203.388 91.91 200.252 93.8 Q 197.685 95.347 195.885 95.806 A 5.641 5.641 0 0 1 194.502 96 A 0.728 0.728 0 0 1 194.491 96 Q 194.09 95.995 193.252 95.55 Q 192.69 95.253 192.5 94.717 A 1.831 1.831 0 0 1 192.402 94.1 Q 192.402 92.1 194.502 89.95 Q 195.683 88.741 197.18 87.453 A 63.072 63.072 0 0 1 199.702 85.4 Q 202.802 83 205.852 80.45 A 36.694 36.694 0 0 0 207.836 78.668 A 30.163 30.163 0 0 0 211.002 75.1 A 11.894 11.894 0 0 0 212.219 73.119 A 8.513 8.513 0 0 0 213.102 69.4 A 7.571 7.571 0 0 0 213.074 68.745 Q 213.015 68.058 212.824 67.502 A 3.237 3.237 0 0 0 211.752 65.95 A 6.936 6.936 0 0 0 211.212 65.569 Q 210.767 65.287 210.34 65.123 A 3.184 3.184 0 0 0 209.202 64.9 Q 206.202 64.9 201.352 68.3 A 41.918 41.918 0 0 0 200.136 69.186 Q 197.956 70.834 195.706 72.959 A 76.313 76.313 0 0 0 191.302 77.5 L 190.102 78.8 Z M 594.702 78.8 L 595.702 78.8 L 596.902 77.5 Q 599.902 74.2 603.202 71.5 A 65.511 65.511 0 0 1 604.121 70.762 Q 605.486 69.685 606.772 68.795 A 37.984 37.984 0 0 1 609.352 67.15 A 23.235 23.235 0 0 1 610.592 66.478 Q 612.547 65.5 613.702 65.5 Q 615.202 65.5 615.202 67 A 5.126 5.126 0 0 1 615.067 68.159 Q 614.69 69.791 613.252 71.45 A 29.62 29.62 0 0 1 612.829 71.927 Q 611.89 72.965 610.741 74.045 A 51.835 51.835 0 0 1 608.352 76.15 Q 605.402 78.6 602.502 81.3 A 36.945 36.945 0 0 0 600.701 83.094 A 30.444 30.444 0 0 0 597.652 86.9 A 13.062 13.062 0 0 0 597.168 87.676 A 10.53 10.53 0 0 0 595.702 93 A 4.854 4.854 0 0 0 595.781 93.897 A 3.439 3.439 0 0 0 596.602 95.6 A 2.895 2.895 0 0 0 597.921 96.448 A 3.648 3.648 0 0 0 599.002 96.6 A 5.844 5.844 0 0 0 599.729 96.552 Q 601.116 96.378 602.99 95.571 A 27.184 27.184 0 0 0 604.902 94.65 Q 606.983 93.553 609.238 92.045 A 70.297 70.297 0 0 0 612.852 89.45 Q 617.102 86.2 620.702 82.4 L 620.602 80.6 Q 616.902 84.5 612.702 88.05 A 85.121 85.121 0 0 1 611.531 89.022 Q 607.988 91.91 604.852 93.8 Q 602.285 95.347 600.485 95.806 A 5.641 5.641 0 0 1 599.102 96 A 0.728 0.728 0 0 1 599.091 96 Q 598.69 95.995 597.852 95.55 Q 597.29 95.253 597.1 94.717 A 1.831 1.831 0 0 1 597.002 94.1 Q 597.002 92.1 599.102 89.95 Q 600.283 88.741 601.78 87.453 A 63.072 63.072 0 0 1 604.302 85.4 Q 607.402 83 610.452 80.45 A 36.694 36.694 0 0 0 612.436 78.668 A 30.163 30.163 0 0 0 615.602 75.1 A 11.894 11.894 0 0 0 616.819 73.119 A 8.513 8.513 0 0 0 617.702 69.4 A 7.571 7.571 0 0 0 617.674 68.745 Q 617.615 68.058 617.424 67.502 A 3.237 3.237 0 0 0 616.352 65.95 A 6.936 6.936 0 0 0 615.812 65.569 Q 615.367 65.287 614.94 65.123 A 3.184 3.184 0 0 0 613.802 64.9 Q 610.802 64.9 605.952 68.3 A 41.918 41.918 0 0 0 604.736 69.186 Q 602.556 70.834 600.306 72.959 A 76.313 76.313 0 0 0 595.902 77.5 L 594.702 78.8 Z M 288.902 65.4 L 296.702 65.4 Q 294.8 66.351 292.003 68.646 A 61.389 61.389 0 0 0 291.102 69.4 Q 287.702 72.3 284.002 75.95 A 141.706 141.706 0 0 0 277.102 83.243 A 131.169 131.169 0 0 0 277.052 83.3 A 101.729 101.729 0 0 0 274.783 85.97 Q 273.033 88.107 271.752 89.95 Q 269.918 92.589 269.724 93.828 A 1.773 1.773 0 0 0 269.702 94.1 Q 269.702 96 271.302 96 Q 272.749 96 275.24 94.579 A 29.557 29.557 0 0 0 276.902 93.55 Q 279.698 91.699 283.066 88.79 A 104.7 104.7 0 0 0 285.302 86.8 A 122.738 122.738 0 0 0 291.764 80.415 A 143.941 143.941 0 0 0 294.702 77.2 L 295.802 77.2 Q 287.102 86.4 280.652 91.5 A 56.92 56.92 0 0 1 277.995 93.488 Q 274.035 96.258 271.743 96.563 A 4.11 4.11 0 0 1 271.202 96.6 A 2.876 2.876 0 0 1 270.426 96.501 A 2.067 2.067 0 0 1 269.352 95.8 A 2.796 2.796 0 0 1 268.809 94.674 Q 268.71 94.263 268.702 93.782 A 5.106 5.106 0 0 1 268.702 93.7 A 9.046 9.046 0 0 1 268.984 91.539 Q 269.424 89.753 270.552 87.65 Q 272.223 84.534 275.975 79.908 A 113.965 113.965 0 0 1 276.802 78.9 A 173.298 173.298 0 0 1 279.208 76.069 Q 282.575 72.186 287.314 67.098 A 565.482 565.482 0 0 1 288.902 65.4 Z M 399.502 35 L 376.502 60.6 L 374.602 58.5 L 418.602 8.4 L 426.802 8.4 A 12.343 12.343 0 0 0 425.517 9.121 Q 424.161 9.981 422.41 11.446 A 56.394 56.394 0 0 0 421.302 12.4 Q 417.902 15.4 413.952 19.4 Q 410.002 23.4 406.202 27.55 A 608.418 608.418 0 0 0 403.049 31.019 Q 401.612 32.613 400.335 34.055 A 356.074 356.074 0 0 0 399.502 35 Z M 335.302 65.4 L 343.102 65.4 A 14.449 14.449 0 0 0 342.143 65.97 Q 341.166 66.599 339.952 67.55 Q 338.362 68.796 336.439 70.523 A 104.214 104.214 0 0 0 335.802 71.1 Q 328.702 78 324.452 82.5 Q 320.949 86.209 319.076 88.696 A 27.748 27.748 0 0 0 318.352 89.7 A 18.792 18.792 0 0 0 317.542 90.982 Q 316.502 92.8 316.502 94 A 3.67 3.67 0 0 0 316.568 94.73 Q 316.827 96 318.102 96 A 4.392 4.392 0 0 0 319.237 95.83 Q 320.377 95.522 321.921 94.654 A 26.68 26.68 0 0 0 323.252 93.85 A 44.157 44.157 0 0 0 326.089 91.856 Q 328.247 90.218 330.652 88.05 Q 334.702 84.4 338.502 80.1 L 339.702 78.8 L 340.702 78.8 L 339.802 79.8 A 109.1 109.1 0 0 1 334.454 85.487 A 89.175 89.175 0 0 1 331.252 88.5 Q 327.002 92.3 323.502 94.45 Q 320.755 96.137 318.932 96.501 A 4.781 4.781 0 0 1 318.002 96.6 A 2.79 2.79 0 0 1 315.978 95.777 A 3.38 3.38 0 0 1 315.952 95.75 A 2.871 2.871 0 0 1 315.107 93.803 A 3.82 3.82 0 0 1 315.102 93.6 A 8.584 8.584 0 0 1 315.514 91.129 Q 316.235 88.751 318.22 85.622 A 50.173 50.173 0 0 1 319.902 83.15 Q 323.911 77.596 331.965 68.938 A 373.031 373.031 0 0 1 335.302 65.4 Z M 648.002 65.4 L 655.802 65.4 A 14.449 14.449 0 0 0 654.843 65.97 Q 653.866 66.599 652.652 67.55 Q 651.062 68.796 649.139 70.523 A 104.214 104.214 0 0 0 648.502 71.1 Q 641.402 78 637.152 82.5 Q 633.649 86.209 631.776 88.696 A 27.748 27.748 0 0 0 631.052 89.7 A 18.792 18.792 0 0 0 630.242 90.982 Q 629.202 92.8 629.202 94 A 3.67 3.67 0 0 0 629.268 94.73 Q 629.527 96 630.802 96 A 4.392 4.392 0 0 0 631.937 95.83 Q 633.077 95.522 634.621 94.654 A 26.68 26.68 0 0 0 635.952 93.85 A 44.157 44.157 0 0 0 638.789 91.856 Q 640.947 90.218 643.352 88.05 Q 647.402 84.4 651.202 80.1 L 652.402 78.8 L 653.402 78.8 L 652.502 79.8 A 109.1 109.1 0 0 1 647.154 85.487 A 89.175 89.175 0 0 1 643.952 88.5 Q 639.702 92.3 636.202 94.45 Q 633.455 96.137 631.632 96.501 A 4.781 4.781 0 0 1 630.702 96.6 A 2.79 2.79 0 0 1 628.678 95.777 A 3.38 3.38 0 0 1 628.652 95.75 A 2.871 2.871 0 0 1 627.807 93.803 A 3.82 3.82 0 0 1 627.802 93.6 A 8.584 8.584 0 0 1 628.214 91.129 Q 628.935 88.751 630.92 85.622 A 50.173 50.173 0 0 1 632.602 83.15 Q 636.611 77.596 644.665 68.938 A 373.031 373.031 0 0 1 648.002 65.4 Z M 305.402 65.4 L 313.202 65.4 Q 311.902 66.1 310.052 67.45 A 26.028 26.028 0 0 0 308.601 68.596 Q 307.813 69.262 306.958 70.072 A 53.654 53.654 0 0 0 305.902 71.1 A 798.404 798.404 0 0 0 302.577 74.444 Q 297.852 79.225 294.702 82.6 A 150.363 150.363 0 0 0 292.745 84.735 Q 290.027 87.763 288.602 89.75 Q 287.111 91.83 286.79 93.263 A 3.383 3.383 0 0 0 286.702 94 A 3.919 3.919 0 0 0 286.762 94.724 Q 286.99 95.928 288.068 95.996 A 2.103 2.103 0 0 0 288.202 96 Q 289.626 96 291.99 94.623 A 25.767 25.767 0 0 0 293.302 93.8 Q 296.602 91.6 300.652 88 A 102.981 102.981 0 0 0 307.624 81.164 A 114.382 114.382 0 0 0 308.602 80.1 L 309.802 78.8 L 310.802 78.8 L 309.902 79.8 A 109.1 109.1 0 0 1 304.554 85.487 A 89.175 89.175 0 0 1 301.352 88.5 Q 297.102 92.3 293.602 94.45 Q 290.855 96.137 289.032 96.501 A 4.781 4.781 0 0 1 288.102 96.6 A 4.022 4.022 0 0 1 286.936 96.446 Q 285.202 95.921 285.202 93.6 A 8.584 8.584 0 0 1 285.614 91.129 Q 286.335 88.751 288.32 85.622 A 50.173 50.173 0 0 1 290.002 83.15 Q 294.011 77.596 302.065 68.938 A 373.031 373.031 0 0 1 305.402 65.4 Z M 376.502 60.6 L 374.602 58.5 L 357.002 78.7 A 130.229 130.229 0 0 1 355.953 79.921 A 144.635 144.635 0 0 1 348.502 87.85 Q 343.902 92.4 339.702 95.7 L 346.502 95.7 L 355.202 85.9 L 357.802 82.4 L 356.502 82.4 L 376.502 60.6 Z M 396.402 56.4 L 344.902 56.4 L 344.902 55.5 L 396.402 55.5 L 396.402 56.4 Z M 232.502 78.8 L 231.602 79.8 Q 227.802 84.1 224.302 86.6 A 20.276 20.276 0 0 1 222.412 87.809 Q 220.399 88.933 218.777 89.079 A 5.304 5.304 0 0 1 218.302 89.1 Q 214.302 89.1 214.302 84.1 A 6.816 6.816 0 0 1 214.502 82.533 Q 214.854 81.052 215.821 79.19 A 24.692 24.692 0 0 1 216.002 78.85 A 33.459 33.459 0 0 1 217.728 76.018 Q 218.676 74.615 219.847 73.141 A 57.382 57.382 0 0 1 220.652 72.15 Q 223.602 68.6 227.202 65.4 L 233.102 65.4 Q 228.302 69.3 224.402 73.4 A 100.317 100.317 0 0 0 221.694 76.356 Q 220.398 77.833 219.338 79.18 A 48.677 48.677 0 0 0 218.152 80.75 Q 215.915 83.843 215.807 85.442 A 2.35 2.35 0 0 0 215.802 85.6 Q 215.802 86.984 216.325 87.62 A 1.456 1.456 0 0 0 216.502 87.8 A 2.371 2.371 0 0 0 217.447 88.286 Q 217.796 88.379 218.208 88.396 A 4.561 4.561 0 0 0 218.402 88.4 A 5.567 5.567 0 0 0 220.026 88.134 Q 221.684 87.627 223.752 86.15 A 32.368 32.368 0 0 0 226.556 83.885 Q 228.389 82.238 230.302 80.1 L 231.402 78.8 L 232.502 78.8 Z M 637.102 78.8 L 636.202 79.8 Q 632.402 84.1 628.902 86.6 A 20.276 20.276 0 0 1 627.012 87.809 Q 624.999 88.933 623.377 89.079 A 5.304 5.304 0 0 1 622.902 89.1 Q 618.902 89.1 618.902 84.1 A 6.816 6.816 0 0 1 619.102 82.533 Q 619.454 81.052 620.421 79.19 A 24.692 24.692 0 0 1 620.602 78.85 A 33.459 33.459 0 0 1 622.328 76.018 Q 623.276 74.615 624.447 73.141 A 57.382 57.382 0 0 1 625.252 72.15 Q 628.202 68.6 631.802 65.4 L 637.702 65.4 Q 632.902 69.3 629.002 73.4 A 100.317 100.317 0 0 0 626.294 76.356 Q 624.998 77.833 623.938 79.18 A 48.677 48.677 0 0 0 622.752 80.75 Q 620.515 83.843 620.407 85.442 A 2.35 2.35 0 0 0 620.402 85.6 Q 620.402 86.984 620.925 87.62 A 1.456 1.456 0 0 0 621.102 87.8 A 2.371 2.371 0 0 0 622.047 88.286 Q 622.396 88.379 622.808 88.396 A 4.561 4.561 0 0 0 623.002 88.4 A 5.567 5.567 0 0 0 624.626 88.134 Q 626.284 87.627 628.352 86.15 A 32.368 32.368 0 0 0 631.156 83.885 Q 632.989 82.238 634.902 80.1 L 636.002 78.8 L 637.102 78.8 Z M 156.405 96.36 A 2.886 2.886 0 0 0 157.602 96.6 A 5.332 5.332 0 0 0 158.183 96.567 Q 159.655 96.406 161.579 95.451 A 22.923 22.923 0 0 0 163.452 94.4 A 47.1 47.1 0 0 0 164.206 93.922 Q 167.434 91.836 171.102 88.75 Q 175.202 85.3 178.902 81.4 A 232.098 232.098 0 0 0 181.017 79.167 Q 182.706 77.358 184.152 75.725 A 116.94 116.94 0 0 0 186.702 72.75 A 26.502 26.502 0 0 0 187.633 71.559 Q 189.802 68.608 189.802 66.6 A 3.632 3.632 0 0 0 189.789 66.291 Q 189.635 64.496 187.641 64.107 A 6.521 6.521 0 0 0 186.402 64 Q 182.402 64 177.952 65.7 A 37.888 37.888 0 0 0 176.567 66.261 A 41.566 41.566 0 0 0 169.302 70.3 Q 165.102 73.2 161.702 76.75 A 37.648 37.648 0 0 0 159.529 79.221 A 30.499 30.499 0 0 0 156.302 84.1 A 22.687 22.687 0 0 0 156.074 84.544 Q 155.302 86.093 154.866 87.575 A 13.176 13.176 0 0 0 154.302 91.3 Q 154.302 93.8 155.152 95.2 Q 155.65 96.021 156.405 96.36 Z M 561.005 96.36 A 2.886 2.886 0 0 0 562.202 96.6 A 5.332 5.332 0 0 0 562.783 96.567 Q 564.255 96.406 566.179 95.451 A 22.923 22.923 0 0 0 568.052 94.4 A 47.1 47.1 0 0 0 568.806 93.922 Q 572.034 91.836 575.702 88.75 Q 579.802 85.3 583.502 81.4 A 232.098 232.098 0 0 0 585.617 79.167 Q 587.306 77.358 588.752 75.725 A 116.94 116.94 0 0 0 591.302 72.75 A 26.502 26.502 0 0 0 592.233 71.559 Q 594.402 68.608 594.402 66.6 A 3.632 3.632 0 0 0 594.389 66.291 Q 594.235 64.496 592.241 64.107 A 6.521 6.521 0 0 0 591.002 64 Q 587.002 64 582.552 65.7 A 37.888 37.888 0 0 0 581.167 66.261 A 41.566 41.566 0 0 0 573.902 70.3 Q 569.702 73.2 566.302 76.75 A 37.648 37.648 0 0 0 564.129 79.221 A 30.499 30.499 0 0 0 560.902 84.1 A 22.687 22.687 0 0 0 560.674 84.544 Q 559.902 86.093 559.466 87.575 A 13.176 13.176 0 0 0 558.902 91.3 Q 558.902 93.8 559.752 95.2 Q 560.25 96.021 561.005 96.36 Z M 324.402 78.8 L 323.402 79.8 A 65.295 65.295 0 0 1 320.69 82.772 Q 318.483 85.038 316.452 86.6 A 18.232 18.232 0 0 1 314.691 87.809 Q 312.527 89.1 310.802 89.1 Q 307.997 89.1 307.576 85.778 A 10.194 10.194 0 0 1 307.502 84.5 A 7.947 7.947 0 0 1 307.731 82.683 Q 308.124 81.014 309.193 78.966 A 25.507 25.507 0 0 1 309.202 78.95 Q 310.902 75.7 313.802 72.15 Q 316.702 68.6 320.302 65.4 L 326.302 65.4 A 95.522 95.522 0 0 0 319.608 71.363 A 83.691 83.691 0 0 0 317.602 73.4 Q 313.702 77.5 311.352 80.85 A 24.124 24.124 0 0 0 310.325 82.432 Q 309.411 83.98 309.128 85.14 A 4.072 4.072 0 0 0 309.002 86.1 A 3.848 3.848 0 0 0 309.091 86.968 Q 309.423 88.4 311.002 88.4 A 4.621 4.621 0 0 0 312.468 88.138 Q 313.75 87.707 315.299 86.571 A 19.552 19.552 0 0 0 315.852 86.15 Q 318.034 84.428 320.538 81.796 A 74.939 74.939 0 0 0 322.102 80.1 L 323.302 78.8 L 324.402 78.8 Z M 157.702 95.9 A 5.276 5.276 0 0 0 158.949 95.733 Q 160.201 95.426 161.854 94.555 A 25.772 25.772 0 0 0 162.852 94 Q 166.102 92.1 170.102 88.7 Q 174.102 85.3 178.402 80.9 Q 183.046 76.059 185.932 72.535 A 78.618 78.618 0 0 0 186.002 72.45 Q 188.262 69.683 188.761 67.736 A 4.185 4.185 0 0 0 188.902 66.7 Q 188.902 65.196 187.179 65.023 A 4.78 4.78 0 0 0 186.702 65 Q 184.888 65 182.212 66.315 A 23.841 23.841 0 0 0 181.652 66.6 A 38.021 38.021 0 0 0 178.603 68.397 Q 177.139 69.348 175.595 70.513 A 62.899 62.899 0 0 0 175.152 70.85 A 88.819 88.819 0 0 0 169.179 75.885 A 98.88 98.88 0 0 0 168.302 76.7 A 81.942 81.942 0 0 0 163.173 81.966 A 73.213 73.213 0 0 0 162.102 83.2 A 58.081 58.081 0 0 0 159.862 86.002 Q 158.884 87.311 158.101 88.54 A 32.749 32.749 0 0 0 157.602 89.35 A 18.153 18.153 0 0 0 156.78 90.878 Q 156.032 92.459 155.921 93.684 A 4.612 4.612 0 0 0 155.902 94.1 A 2.591 2.591 0 0 0 155.991 94.813 Q 156.302 95.9 157.702 95.9 Z M 562.302 95.9 A 5.276 5.276 0 0 0 563.549 95.733 Q 564.801 95.426 566.454 94.555 A 25.772 25.772 0 0 0 567.452 94 Q 570.702 92.1 574.702 88.7 Q 578.702 85.3 583.002 80.9 Q 587.646 76.059 590.532 72.535 A 78.618 78.618 0 0 0 590.602 72.45 Q 592.862 69.683 593.361 67.736 A 4.185 4.185 0 0 0 593.502 66.7 Q 593.502 65.196 591.779 65.023 A 4.78 4.78 0 0 0 591.302 65 Q 589.488 65 586.812 66.315 A 23.841 23.841 0 0 0 586.252 66.6 A 38.021 38.021 0 0 0 583.203 68.397 Q 581.739 69.348 580.195 70.513 A 62.899 62.899 0 0 0 579.752 70.85 A 88.819 88.819 0 0 0 573.779 75.885 A 98.88 98.88 0 0 0 572.902 76.7 A 81.942 81.942 0 0 0 567.773 81.966 A 73.213 73.213 0 0 0 566.702 83.2 A 58.081 58.081 0 0 0 564.462 86.002 Q 563.484 87.311 562.701 88.54 A 32.749 32.749 0 0 0 562.202 89.35 A 18.153 18.153 0 0 0 561.38 90.878 Q 560.632 92.459 560.521 93.684 A 4.612 4.612 0 0 0 560.502 94.1 A 2.591 2.591 0 0 0 560.591 94.813 Q 560.902 95.9 562.302 95.9 Z M 680.102 78.8 L 681.102 78.8 L 682.402 77.4 Q 692.102 66.7 698.002 60.75 Q 702.058 56.66 705.216 53.963 A 54.958 54.958 0 0 1 707.902 51.8 L 703.602 51.8 Q 702.223 53.791 698.588 58.068 A 338.289 338.289 0 0 1 696.152 60.9 A 511.646 511.646 0 0 1 694.92 62.312 Q 689.531 68.466 681.302 77.5 L 680.102 78.8 Z M 191.102 78.8 L 190.202 79.8 Q 186.902 83.5 183.902 85.55 Q 180.902 87.6 178.802 87.6 A 5.352 5.352 0 0 1 177.399 87.433 Q 175.202 86.835 175.202 84.1 A 8.781 8.781 0 0 1 175.922 80.657 A 10.577 10.577 0 0 1 176.252 79.95 A 15.187 15.187 0 0 1 177.059 78.576 Q 178.114 76.963 179.902 74.9 L 184.702 74.9 L 178.602 81.7 A 5.227 5.227 0 0 0 177.512 83.244 A 4.698 4.698 0 0 0 177.102 85.2 A 2.591 2.591 0 0 0 177.191 85.913 Q 177.502 87 178.902 87 A 4.225 4.225 0 0 0 180.062 86.82 Q 181.445 86.422 183.302 85.15 A 25.799 25.799 0 0 0 185.702 83.273 Q 186.878 82.244 188.09 80.974 A 46.519 46.519 0 0 0 188.902 80.1 L 190.102 78.8 L 191.102 78.8 Z M 595.702 78.8 L 594.802 79.8 Q 591.502 83.5 588.502 85.55 Q 585.502 87.6 583.402 87.6 A 5.352 5.352 0 0 1 581.999 87.433 Q 579.802 86.835 579.802 84.1 A 8.781 8.781 0 0 1 580.522 80.657 A 10.577 10.577 0 0 1 580.852 79.95 A 15.187 15.187 0 0 1 581.659 78.576 Q 582.714 76.963 584.502 74.9 L 589.302 74.9 L 583.202 81.7 A 5.227 5.227 0 0 0 582.112 83.244 A 4.698 4.698 0 0 0 581.702 85.2 A 2.591 2.591 0 0 0 581.791 85.913 Q 582.102 87 583.502 87 A 4.225 4.225 0 0 0 584.662 86.82 Q 586.045 86.422 587.902 85.15 A 25.799 25.799 0 0 0 590.302 83.273 Q 591.478 82.244 592.69 80.974 A 46.519 46.519 0 0 0 593.502 80.1 L 594.702 78.8 L 595.702 78.8 Z M 360.396 40.532 A 2.228 2.228 0 0 0 360.002 40.5 A 3.146 3.146 0 0 0 359.6 40.527 Q 358.715 40.641 357.571 41.239 A 13.701 13.701 0 0 0 356.452 41.9 Q 354.302 43.3 352.652 45.1 Q 351.517 46.338 351.163 47.292 A 2.331 2.331 0 0 0 351.002 48.1 A 1.121 1.121 0 0 0 351.01 48.238 Q 351.092 48.9 352.002 48.9 A 4.61 4.61 0 0 0 353.202 48.73 Q 354.348 48.42 355.702 47.55 Q 357.802 46.2 359.452 44.4 A 12.159 12.159 0 0 0 359.822 43.978 Q 360.608 43.037 360.911 42.242 A 2.646 2.646 0 0 0 361.102 41.3 Q 361.102 40.66 360.396 40.532 Z M 673.096 40.532 A 2.228 2.228 0 0 0 672.702 40.5 A 3.146 3.146 0 0 0 672.3 40.527 Q 671.415 40.641 670.271 41.239 A 13.701 13.701 0 0 0 669.152 41.9 Q 667.002 43.3 665.352 45.1 Q 664.217 46.338 663.863 47.292 A 2.331 2.331 0 0 0 663.702 48.1 A 1.121 1.121 0 0 0 663.71 48.238 Q 663.792 48.9 664.702 48.9 A 4.61 4.61 0 0 0 665.902 48.73 Q 667.048 48.42 668.402 47.55 Q 670.502 46.2 672.152 44.4 A 12.159 12.159 0 0 0 672.522 43.978 Q 673.308 43.037 673.611 42.242 A 2.646 2.646 0 0 0 673.802 41.3 Q 673.802 40.66 673.096 40.532 Z" vector-effect="non-scaling-stroke"/></g></svg>