<svg width="319.501" height="172.301" viewBox="0 0 319.501 172.301" xmlns="http://www.w3.org/2000/svg"><g id="svgGroup" stroke-linecap="round" fill-rule="evenodd" font-size="9pt" stroke="#fff" stroke-width="0.25mm" fill="#fff" style="stroke:#fff;stroke-width:0.25mm;fill:#fff"><path d="M 147.201 23.901 L 152.401 23.901 A 18.547 18.547 0 0 0 150.496 24.58 Q 148.82 25.276 146.851 26.401 A 54.029 54.029 0 0 0 141.033 30.259 A 59.32 59.32 0 0 0 140.651 30.551 Q 137.601 32.901 135.201 35.501 A 78.128 78.128 0 0 0 128.003 44.793 A 89.696 89.696 0 0 0 126.151 47.701 Q 122.001 54.501 118.001 61.701 Q 114.001 68.901 109.601 75.551 Q 105.201 82.201 99.801 87.401 Q 94.801 92.301 88.001 95.851 Q 81.201 99.401 73.401 101.301 Q 65.601 103.201 57.601 103.201 A 63.267 63.267 0 0 1 48.288 102.55 Q 43.372 101.818 39.183 100.262 A 38.242 38.242 0 0 1 38.001 99.801 A 33.473 33.473 0 0 1 31.106 96.035 A 25.962 25.962 0 0 1 25.201 90.201 A 23.585 23.585 0 0 1 20.834 78.354 A 30.034 30.034 0 0 1 20.701 75.501 Q 20.701 69.301 23.801 63.901 A 30.352 30.352 0 0 1 29.984 56.364 A 36.681 36.681 0 0 1 32.451 54.351 A 41.199 41.199 0 0 1 42.083 49.038 A 48.765 48.765 0 0 1 45.301 47.901 A 50.592 50.592 0 0 1 58.3 45.658 A 58.257 58.257 0 0 1 60.901 45.601 Q 68.224 45.601 73.793 47.315 A 30.404 30.404 0 0 1 75.101 47.751 A 26.104 26.104 0 0 1 79.53 49.794 Q 82.26 51.398 84.152 53.56 A 16.489 16.489 0 0 1 84.401 53.851 Q 87.701 57.801 87.701 63.201 Q 87.701 67.901 85.251 72.001 Q 82.801 76.101 78.501 79.251 Q 74.201 82.401 68.551 84.151 A 39.578 39.578 0 0 1 59.204 85.817 A 46.314 46.314 0 0 1 56.401 85.901 A 36.073 36.073 0 0 1 51.337 85.568 Q 48.736 85.198 46.601 84.418 A 16.474 16.474 0 0 1 43.551 82.951 A 11.77 11.77 0 0 1 40.97 80.833 A 8.305 8.305 0 0 1 38.801 75.101 Q 38.801 70.801 42.801 67.351 A 23.581 23.581 0 0 1 47.133 64.424 Q 49.222 63.311 51.731 62.42 A 43.024 43.024 0 0 1 53.451 61.851 Q 60.101 59.801 68.001 59.801 A 61.897 61.897 0 0 1 77.894 60.562 A 51.559 51.559 0 0 1 83.551 61.801 A 45.353 45.353 0 0 1 90.803 64.481 A 36.211 36.211 0 0 1 95.951 67.451 A 29.337 29.337 0 0 1 101.357 72.243 A 25.079 25.079 0 0 1 104.101 76.051 Q 107.001 81.001 107.001 86.801 Q 107.001 94.101 103.301 100.451 Q 99.601 106.801 92.901 111.551 A 50.214 50.214 0 0 1 82.288 117.243 A 60.78 60.78 0 0 1 77.351 118.951 A 63.208 63.208 0 0 1 64.45 121.342 A 76.272 76.272 0 0 1 58.101 121.601 A 83.929 83.929 0 0 1 44.02 120.464 A 68.574 68.574 0 0 1 34.651 118.201 A 60.561 60.561 0 0 1 23.027 113.158 A 51.089 51.089 0 0 1 16.251 108.551 Q 8.501 102.301 4.251 93.801 A 40.706 40.706 0 0 1 0.072 77.626 A 48.316 48.316 0 0 1 0.001 75.001 A 42.617 42.617 0 0 1 2.342 60.769 A 39.752 39.752 0 0 1 4.251 56.251 Q 8.501 47.701 16.301 41.451 A 54.92 54.92 0 0 1 29.294 33.781 A 66.419 66.419 0 0 1 34.751 31.751 A 71.044 71.044 0 0 1 50.364 28.637 A 86.881 86.881 0 0 1 58.101 28.301 A 69.536 69.536 0 0 1 68.655 29.072 A 57.821 57.821 0 0 1 74.601 30.301 Q 82.201 32.301 87.701 35.951 A 27.27 27.27 0 0 1 91.79 39.235 A 19.524 19.524 0 0 1 95.601 44.401 L 94.601 44.701 A 18.374 18.374 0 0 0 90.939 39.766 A 25.675 25.675 0 0 0 87.001 36.651 Q 81.701 33.201 74.301 31.251 A 58.672 58.672 0 0 0 64.504 29.575 A 72.748 72.748 0 0 0 58.101 29.301 Q 45.601 29.301 35.151 32.651 A 60.377 60.377 0 0 0 23.455 37.755 A 51.078 51.078 0 0 0 17.051 42.101 Q 9.401 48.201 5.201 56.551 A 39.793 39.793 0 0 0 1.067 72.503 A 47.071 47.071 0 0 0 1.001 75.001 Q 1.001 85.001 5.201 93.401 Q 9.401 101.801 17.001 107.851 Q 24.601 113.901 35.051 117.251 Q 45.501 120.601 58.101 120.601 A 70.483 70.483 0 0 0 70.754 119.502 A 60.244 60.244 0 0 0 76.901 118.051 A 55.768 55.768 0 0 0 86.474 114.3 A 46.376 46.376 0 0 0 92.151 110.901 A 37.725 37.725 0 0 0 98.869 104.935 A 32.019 32.019 0 0 0 102.351 100.151 Q 106.001 94.001 106.001 86.801 Q 106.001 79.301 101.051 73.451 A 29.581 29.581 0 0 0 93.663 67.249 A 40.069 40.069 0 0 0 87.501 64.251 A 48.248 48.248 0 0 0 76.442 61.453 A 63.495 63.495 0 0 0 67.901 60.901 Q 60.201 60.901 53.801 62.851 A 38.038 38.038 0 0 0 49.198 64.565 Q 45.917 66.051 43.601 68.001 Q 39.801 71.201 39.801 75.001 A 7.663 7.663 0 0 0 42.659 81.094 A 11.7 11.7 0 0 0 44.301 82.251 A 17.145 17.145 0 0 0 48.65 84.015 Q 50.722 84.561 53.189 84.771 A 38.042 38.042 0 0 0 56.401 84.901 Q 62.601 84.901 68.051 83.201 A 35.621 35.621 0 0 0 74.666 80.409 A 30.83 30.83 0 0 0 77.701 78.501 Q 81.901 75.501 84.301 71.551 Q 86.701 67.601 86.701 63.201 Q 86.701 58.201 83.501 54.451 Q 80.389 50.803 74.816 48.764 A 30.266 30.266 0 0 0 74.501 48.651 Q 68.701 46.601 60.901 46.601 A 50.731 50.731 0 0 0 48.609 48.057 A 46.31 46.31 0 0 0 45.801 48.851 A 44.637 44.637 0 0 0 37.214 52.557 A 38.539 38.539 0 0 0 33.301 55.101 A 33.165 33.165 0 0 0 27.326 60.739 A 28.949 28.949 0 0 0 24.801 64.351 Q 21.701 69.601 21.701 75.501 A 19.995 19.995 0 0 0 23.443 83.963 Q 25.398 88.208 29.548 91.32 A 25.35 25.35 0 0 0 30.801 92.201 A 32.252 32.252 0 0 0 39.648 96.168 Q 43.599 97.311 48.311 97.811 A 73.906 73.906 0 0 0 56.101 98.201 Q 64.701 98.201 71.551 96.101 A 44.899 44.899 0 0 0 82.182 91.198 A 52.505 52.505 0 0 0 84.801 89.451 A 74.567 74.567 0 0 0 90.516 84.924 Q 93.327 82.478 96.244 79.525 A 129.419 129.419 0 0 0 98.201 77.501 A 259.392 259.392 0 0 0 103.69 71.501 Q 106.674 68.141 109.916 64.293 A 478.733 478.733 0 0 0 113.901 59.501 Q 119.882 52.213 127.282 43.224 A 22965.304 22965.304 0 0 1 134.301 34.701 Q 137.001 31.401 140.351 28.651 A 50.592 50.592 0 0 1 145.894 24.677 A 45.573 45.573 0 0 1 147.201 23.901 Z M 66.601 133.801 L 66.701 134.401 A 16.008 16.008 0 0 0 61.661 135.162 A 13.322 13.322 0 0 0 56.351 138.451 A 13.649 13.649 0 0 0 52.444 146.648 A 18.845 18.845 0 0 0 52.301 149.001 Q 52.301 155.401 56.051 160.301 A 22.713 22.713 0 0 0 62.399 165.914 A 29.66 29.66 0 0 0 66.451 167.951 A 35.261 35.261 0 0 0 74.581 170.174 A 47.382 47.382 0 0 0 81.801 170.701 Q 94.901 170.701 107.751 165.701 Q 120.601 160.701 132.951 151.901 A 193.518 193.518 0 0 0 153.807 134.645 A 216.687 216.687 0 0 0 156.901 131.651 Q 168.501 120.201 179.151 107.201 Q 189.801 94.201 199.201 80.801 Q 205.701 71.301 211.301 63.751 A 431.546 431.546 0 0 1 218.145 54.762 A 354.193 354.193 0 0 1 222.101 49.801 Q 228.401 42.101 235.401 34.901 Q 242.401 27.701 249.401 21.501 Q 256.401 15.301 262.801 10.651 A 110.557 110.557 0 0 1 267.803 7.211 Q 271.314 4.944 274.401 3.401 A 37.865 37.865 0 0 1 277.168 2.144 Q 280.501 0.801 282.801 0.801 A 4.186 4.186 0 0 1 284.047 0.97 Q 285.416 1.397 285.774 2.9 A 5.192 5.192 0 0 1 285.901 4.101 Q 285.901 6.901 283.401 10.851 A 33.074 33.074 0 0 1 281.007 14.134 Q 279.747 15.668 278.185 17.263 A 63.809 63.809 0 0 1 276.201 19.201 Q 273.726 21.538 270.4 24.372 A 254.182 254.182 0 0 1 267.201 27.051 Q 261.801 31.501 255.451 36.401 Q 249.101 41.301 242.601 46.101 Q 236.101 50.901 230.201 55.051 Q 225.684 58.228 221.958 60.614 A 145.487 145.487 0 0 1 219.751 62.001 Q 215.201 64.801 212.901 65.801 L 212.601 65.101 A 60.154 60.154 0 0 0 215.627 63.507 Q 218.712 61.777 222.551 59.251 Q 228.401 55.401 235.101 50.401 Q 241.801 45.401 248.701 39.801 A 541.555 541.555 0 0 0 261.554 29.044 A 497.27 497.27 0 0 0 261.951 28.701 Q 268.301 23.201 273.351 18.301 A 194.536 194.536 0 0 0 276.581 15.097 Q 278.006 13.647 279.212 12.348 A 84.12 84.12 0 0 0 281.401 9.901 Q 282.256 8.89 283.021 7.336 A 20.845 20.845 0 0 0 283.451 6.401 A 22.843 22.843 0 0 0 283.861 5.39 Q 284.401 3.954 284.401 3.201 Q 284.401 1.602 282.633 1.507 A 4.3 4.3 0 0 0 282.401 1.501 Q 279.883 1.501 275.815 3.579 A 42.033 42.033 0 0 0 274.201 4.451 A 74.046 74.046 0 0 0 269.753 7.202 Q 267.62 8.621 265.301 10.336 A 144.183 144.183 0 0 0 262.451 12.501 A 180.721 180.721 0 0 0 254.497 19.086 A 226.569 226.569 0 0 0 248.851 24.201 Q 241.801 30.801 235.001 38.251 Q 228.201 45.701 222.501 53.201 Q 211.501 67.701 205.751 75.351 A 475.933 475.933 0 0 0 203.273 78.676 Q 200.228 82.8 198.757 85.034 A 38.43 38.43 0 0 0 198.201 85.901 A 450.4 450.4 0 0 1 179.321 112.196 A 391.46 391.46 0 0 1 172.901 120.251 Q 160.001 136.001 146.151 147.651 A 123.55 123.55 0 0 1 127.021 160.98 A 106.733 106.733 0 0 1 117.301 165.801 Q 102.301 172.301 85.701 172.301 Q 75.201 172.301 67.601 169.351 A 32.699 32.699 0 0 1 61.659 166.36 A 23.775 23.775 0 0 1 55.851 161.151 Q 51.701 155.901 51.701 149.001 A 17.657 17.657 0 0 1 52.413 143.872 A 14.022 14.022 0 0 1 55.851 138.051 Q 60.001 133.801 66.601 133.801 Z M 80.101 28.601 L 79.401 27.901 A 22.182 22.182 0 0 1 87.078 22.49 A 21.563 21.563 0 0 1 95.401 20.901 A 25.469 25.469 0 0 1 100.178 21.329 A 19.421 19.421 0 0 1 104.901 22.851 A 16.431 16.431 0 0 1 109.413 25.962 A 14.998 14.998 0 0 1 111.351 28.301 A 13.897 13.897 0 0 1 113.692 35.742 A 16.885 16.885 0 0 1 113.701 36.301 Q 113.701 42.301 110.151 46.901 A 21.662 21.662 0 0 1 104.162 52.179 A 28.214 28.214 0 0 1 100.351 54.101 A 32.98 32.98 0 0 1 92.703 56.203 A 44.457 44.457 0 0 1 85.901 56.701 Q 76.501 56.701 69.201 53.551 Q 61.901 50.401 57.701 44.851 Q 53.501 39.301 53.501 32.301 Q 53.501 25.401 56.801 19.551 A 31.759 31.759 0 0 1 63.743 11.148 A 37.996 37.996 0 0 1 66.051 9.301 A 43.199 43.199 0 0 1 75.201 4.172 A 52.693 52.693 0 0 1 80.001 2.451 A 56.409 56.409 0 0 1 92.592 0.163 A 66.992 66.992 0 0 1 97.301 0.001 A 67.888 67.888 0 0 1 110.158 1.178 A 58.002 58.002 0 0 1 116.601 2.801 Q 125.501 5.601 132.201 10.601 A 39.435 39.435 0 0 1 139.724 17.874 A 34.864 34.864 0 0 1 142.651 22.251 Q 146.401 28.901 146.401 36.601 Q 146.401 43.201 143.851 49.051 Q 141.301 54.901 136.801 59.451 Q 132.301 64.001 126.451 66.551 Q 120.601 69.101 114.001 69.101 A 24.289 24.289 0 0 1 109.077 68.621 A 19.601 19.601 0 0 1 105.201 67.401 L 105.601 66.501 A 20.191 20.191 0 0 0 107.761 67.244 A 25.527 25.527 0 0 0 109.401 67.651 A 20.026 20.026 0 0 0 112.036 68.026 A 25.214 25.214 0 0 0 114.001 68.101 Q 120.401 68.101 126.051 65.601 Q 131.701 63.101 136.051 58.751 Q 140.401 54.401 142.901 48.701 Q 145.401 43.001 145.401 36.601 Q 145.401 29.101 141.701 22.651 A 35.532 35.532 0 0 0 133.963 13.387 A 42.461 42.461 0 0 0 131.401 11.351 A 49.968 49.968 0 0 0 120.447 5.308 A 59.733 59.733 0 0 0 116.101 3.751 Q 107.401 1.001 97.301 1.001 A 60.687 60.687 0 0 0 86.046 2.01 A 51.808 51.808 0 0 0 80.401 3.401 A 49.183 49.183 0 0 0 71.844 6.903 A 40.78 40.78 0 0 0 66.801 10.051 Q 61.001 14.301 57.751 20.001 Q 54.501 25.701 54.501 32.301 Q 54.501 39.001 58.601 44.301 A 25.709 25.709 0 0 0 65.657 50.525 A 32.983 32.983 0 0 0 69.801 52.651 A 37.22 37.22 0 0 0 79.678 55.307 A 47.617 47.617 0 0 0 85.901 55.701 A 43.434 43.434 0 0 0 92.901 55.162 A 32.352 32.352 0 0 0 99.851 53.251 A 25.601 25.601 0 0 0 104.941 50.525 A 19.823 19.823 0 0 0 109.301 46.401 Q 112.701 42.001 112.701 36.301 Q 112.701 32.101 110.451 28.851 A 14.876 14.876 0 0 0 105.48 24.363 A 18.038 18.038 0 0 0 104.301 23.751 A 19.011 19.011 0 0 0 98.709 22.119 A 24.255 24.255 0 0 0 95.401 21.901 A 20.132 20.132 0 0 0 80.597 28.087 A 25.313 25.313 0 0 0 80.101 28.601 Z M 248.901 78.901 L 311.301 8.401 L 319.501 8.401 Q 317.473 9.366 313.44 12.99 A 95.282 95.282 0 0 0 313.151 13.251 A 151.772 151.772 0 0 0 309.788 16.398 Q 308.313 17.818 306.716 19.419 A 285.159 285.159 0 0 0 303.401 22.801 A 424.381 424.381 0 0 0 296.331 30.316 A 512.824 512.824 0 0 0 291.901 35.201 L 254.601 77.301 Q 249.926 82.609 247.48 86.003 A 38.327 38.327 0 0 0 246.351 87.651 A 22.275 22.275 0 0 0 245.215 89.613 Q 244.001 92.004 244.001 93.801 A 4.311 4.311 0 0 0 244.075 94.64 Q 244.338 95.957 245.531 96.086 A 2.511 2.511 0 0 0 245.801 96.101 Q 248.547 96.101 252.892 93.328 A 43.543 43.543 0 0 0 255.051 91.851 A 59.309 59.309 0 0 0 260.103 87.704 Q 262.537 85.487 265.074 82.772 A 112.871 112.871 0 0 0 267.401 80.201 L 268.501 78.901 L 269.501 78.901 L 268.601 79.901 Q 261.501 88.001 255.551 92.351 A 35.594 35.594 0 0 1 252.435 94.404 Q 248.48 96.701 245.501 96.701 Q 242.001 96.701 242.001 92.801 Q 242.001 86.701 248.901 78.901 Z M 183.201 78.901 Q 176.301 86.701 176.301 92.801 Q 176.301 96.701 179.801 96.701 Q 183.001 96.701 187.751 92.901 Q 192.501 89.101 200.601 79.901 L 201.501 78.901 L 200.501 78.901 L 199.301 80.201 A 388.935 388.935 0 0 1 199.063 80.465 Q 193.822 86.277 190.351 89.651 Q 187.91 92.022 186.013 93.473 A 21.076 21.076 0 0 1 184.401 94.601 A 13.432 13.432 0 0 1 183.188 95.279 Q 181.507 96.101 180.101 96.101 A 2.511 2.511 0 0 1 179.831 96.086 Q 178.638 95.957 178.375 94.64 A 4.311 4.311 0 0 1 178.301 93.801 Q 178.301 92.004 179.541 89.561 A 23.403 23.403 0 0 1 180.701 87.551 Q 183.101 83.801 188.901 77.301 Q 196.701 68.601 204.101 60.901 A 639.977 639.977 0 0 1 206.153 58.775 Q 209.186 55.649 211.951 52.887 A 365.558 365.558 0 0 1 217.401 47.551 A 199.334 199.334 0 0 1 220.049 45.058 Q 224.06 41.355 226.501 39.601 Q 224.301 40.201 222.101 40.501 A 40.777 40.777 0 0 1 221.492 40.579 Q 220.594 40.688 219.784 40.743 A 23.26 23.26 0 0 1 218.201 40.801 Q 213.451 45.801 209.639 49.824 A 5542.889 5542.889 0 0 0 205.401 54.301 Q 200.201 59.801 196.801 63.451 Q 193.401 67.101 191.101 69.651 Q 188.801 72.201 187.001 74.351 Q 185.201 76.501 183.201 78.901 Z M 182.001 80.201 L 183.201 78.901 L 184.201 78.901 L 183.301 79.901 Q 179.201 84.601 174.651 88.401 A 80.231 80.231 0 0 1 170.937 91.331 Q 169.092 92.695 167.379 93.768 A 43.17 43.17 0 0 1 166.251 94.451 A 26.182 26.182 0 0 1 164.254 95.513 Q 162.223 96.474 160.693 96.657 A 5.825 5.825 0 0 1 160.001 96.701 A 4.282 4.282 0 0 1 158.335 96.352 A 5.819 5.819 0 0 1 157.401 95.851 A 2.76 2.76 0 0 1 156.193 94.036 A 4.489 4.489 0 0 1 156.101 93.101 A 6.772 6.772 0 0 1 156.101 93.06 Q 156.115 90.801 157.636 88.354 A 15.105 15.105 0 0 1 158.101 87.651 Q 160.101 84.801 163.101 81.801 Q 166.101 78.801 169.101 76.001 A 82.379 82.379 0 0 0 171.21 73.964 Q 172.338 72.833 173.282 71.786 A 44.47 44.47 0 0 0 174.101 70.851 Q 175.814 68.838 176.06 67.302 A 3.17 3.17 0 0 0 176.101 66.801 A 2.08 2.08 0 0 0 175.965 66.016 Q 175.599 65.114 174.256 65.013 A 4.736 4.736 0 0 0 173.901 65.001 Q 173.05 65.001 171.983 65.254 A 13.082 13.082 0 0 0 171.601 65.351 Q 170.387 65.677 168.912 66.222 A 44.393 44.393 0 0 0 168.701 66.301 L 169.501 65.201 Q 170.801 64.701 172.051 64.301 A 8.572 8.572 0 0 1 174.483 63.903 A 9.68 9.68 0 0 1 174.701 63.901 A 10.207 10.207 0 0 1 176.375 64.03 Q 177.283 64.181 178.022 64.509 A 5.312 5.312 0 0 1 178.751 64.901 Q 180.301 65.901 180.301 68.201 A 7.609 7.609 0 0 1 179.569 71.394 Q 179.018 72.597 178.051 73.801 A 32.443 32.443 0 0 1 175.217 76.876 A 42.614 42.614 0 0 1 172.451 79.301 Q 169.101 82.001 165.751 84.551 A 55.591 55.591 0 0 0 163.03 86.753 Q 161.417 88.151 160.151 89.501 A 11.441 11.441 0 0 0 159.013 90.908 Q 157.901 92.554 157.901 94.101 A 2.593 2.593 0 0 0 158.021 94.927 Q 158.408 96.079 160.039 96.1 A 4.739 4.739 0 0 0 160.101 96.101 Q 161.826 96.101 164.631 94.582 A 29.267 29.267 0 0 0 165.901 93.851 Q 169.081 91.917 172.704 88.986 A 92.03 92.03 0 0 0 173.901 88.001 Q 178.201 84.401 182.001 80.201 Z M 280.501 65.501 L 288.301 65.501 A 14.449 14.449 0 0 0 287.342 66.07 Q 286.365 66.699 285.151 67.651 Q 283.561 68.897 281.639 70.623 A 104.214 104.214 0 0 0 281.001 71.201 Q 273.901 78.101 269.651 82.601 Q 266.148 86.31 264.276 88.796 A 27.748 27.748 0 0 0 263.551 89.801 A 18.792 18.792 0 0 0 262.742 91.082 Q 261.701 92.901 261.701 94.101 A 3.67 3.67 0 0 0 261.767 94.831 Q 262.026 96.101 263.301 96.101 A 4.392 4.392 0 0 0 264.436 95.93 Q 265.577 95.622 267.121 94.754 A 26.68 26.68 0 0 0 268.451 93.951 A 44.157 44.157 0 0 0 271.288 91.956 Q 273.446 90.318 275.851 88.151 Q 279.901 84.501 283.701 80.201 L 284.901 78.901 L 285.901 78.901 L 285.001 79.901 A 109.1 109.1 0 0 1 279.654 85.588 A 89.175 89.175 0 0 1 276.451 88.601 Q 272.201 92.401 268.701 94.551 Q 265.955 96.238 264.132 96.601 A 4.781 4.781 0 0 1 263.201 96.701 A 2.79 2.79 0 0 1 261.178 95.877 A 3.38 3.38 0 0 1 261.151 95.851 A 2.871 2.871 0 0 1 260.306 93.903 A 3.82 3.82 0 0 1 260.301 93.701 A 8.584 8.584 0 0 1 260.713 91.229 Q 261.435 88.851 263.42 85.723 A 50.173 50.173 0 0 1 265.101 83.251 Q 269.11 77.696 277.165 69.038 A 373.031 373.031 0 0 1 280.501 65.501 Z M 239.901 56.501 L 188.401 56.501 L 188.401 55.601 L 239.901 55.601 L 239.901 56.501 Z M 122.805 96.46 A 2.886 2.886 0 0 0 124.001 96.701 A 5.332 5.332 0 0 0 124.582 96.668 Q 126.055 96.506 127.978 95.552 A 22.923 22.923 0 0 0 129.851 94.501 A 47.1 47.1 0 0 0 130.606 94.023 Q 133.833 91.937 137.501 88.851 Q 141.601 85.401 145.301 81.501 A 232.098 232.098 0 0 0 147.416 79.267 Q 149.106 77.458 150.551 75.825 A 116.94 116.94 0 0 0 153.101 72.851 A 26.502 26.502 0 0 0 154.033 71.659 Q 156.201 68.708 156.201 66.701 A 3.632 3.632 0 0 0 156.188 66.392 Q 156.035 64.596 154.041 64.208 A 6.521 6.521 0 0 0 152.801 64.101 Q 148.801 64.101 144.351 65.801 A 37.888 37.888 0 0 0 142.967 66.361 A 41.566 41.566 0 0 0 135.701 70.401 Q 131.501 73.301 128.101 76.851 A 37.648 37.648 0 0 0 125.929 79.321 A 30.499 30.499 0 0 0 122.701 84.201 A 22.687 22.687 0 0 0 122.474 84.644 Q 121.701 86.193 121.265 87.675 A 13.176 13.176 0 0 0 120.701 91.401 Q 120.701 93.901 121.551 95.301 Q 122.049 96.121 122.805 96.46 Z M 215.205 96.46 A 2.886 2.886 0 0 0 216.401 96.701 A 5.332 5.332 0 0 0 216.982 96.668 Q 218.455 96.506 220.378 95.552 A 22.923 22.923 0 0 0 222.251 94.501 A 47.1 47.1 0 0 0 223.006 94.023 Q 226.233 91.937 229.901 88.851 Q 234.001 85.401 237.701 81.501 A 232.098 232.098 0 0 0 239.816 79.267 Q 241.506 77.458 242.951 75.825 A 116.94 116.94 0 0 0 245.501 72.851 A 26.502 26.502 0 0 0 246.433 71.659 Q 248.601 68.708 248.601 66.701 A 3.632 3.632 0 0 0 248.588 66.392 Q 248.435 64.596 246.441 64.208 A 6.521 6.521 0 0 0 245.201 64.101 Q 241.201 64.101 236.751 65.801 A 37.888 37.888 0 0 0 235.367 66.361 A 41.566 41.566 0 0 0 228.101 70.401 Q 223.901 73.301 220.501 76.851 A 37.648 37.648 0 0 0 218.329 79.321 A 30.499 30.499 0 0 0 215.101 84.201 A 22.687 22.687 0 0 0 214.874 84.644 Q 214.101 86.193 213.665 87.675 A 13.176 13.176 0 0 0 213.101 91.401 Q 213.101 93.901 213.951 95.301 Q 214.449 96.121 215.205 96.46 Z M 281.405 96.46 A 2.886 2.886 0 0 0 282.601 96.701 A 5.332 5.332 0 0 0 283.182 96.668 Q 284.655 96.506 286.578 95.552 A 22.923 22.923 0 0 0 288.451 94.501 A 47.1 47.1 0 0 0 289.206 94.023 Q 292.433 91.937 296.101 88.851 Q 300.201 85.401 303.901 81.501 A 232.098 232.098 0 0 0 306.016 79.267 Q 307.706 77.458 309.151 75.825 A 116.94 116.94 0 0 0 311.701 72.851 A 26.502 26.502 0 0 0 312.633 71.659 Q 314.801 68.708 314.801 66.701 A 3.632 3.632 0 0 0 314.788 66.392 Q 314.635 64.596 312.641 64.208 A 6.521 6.521 0 0 0 311.401 64.101 Q 307.401 64.101 302.951 65.801 A 37.888 37.888 0 0 0 301.567 66.361 A 41.566 41.566 0 0 0 294.301 70.401 Q 290.101 73.301 286.701 76.851 A 37.648 37.648 0 0 0 284.529 79.321 A 30.499 30.499 0 0 0 281.301 84.201 A 22.687 22.687 0 0 0 281.074 84.644 Q 280.301 86.193 279.865 87.675 A 13.176 13.176 0 0 0 279.301 91.401 Q 279.301 93.901 280.151 95.301 Q 280.649 96.121 281.405 96.46 Z M 124.101 96.001 A 5.276 5.276 0 0 0 125.348 95.833 Q 126.601 95.526 128.254 94.655 A 25.772 25.772 0 0 0 129.251 94.101 Q 132.501 92.201 136.501 88.801 Q 140.501 85.401 144.801 81.001 Q 149.445 76.159 152.332 72.635 A 78.618 78.618 0 0 0 152.401 72.551 Q 154.662 69.783 155.16 67.836 A 4.185 4.185 0 0 0 155.301 66.801 Q 155.301 65.296 153.579 65.123 A 4.78 4.78 0 0 0 153.101 65.101 Q 151.288 65.101 148.612 66.416 A 23.841 23.841 0 0 0 148.051 66.701 A 38.021 38.021 0 0 0 145.003 68.497 Q 143.539 69.448 141.994 70.613 A 62.899 62.899 0 0 0 141.551 70.951 A 88.819 88.819 0 0 0 135.578 75.985 A 98.88 98.88 0 0 0 134.701 76.801 A 81.942 81.942 0 0 0 129.572 82.067 A 73.213 73.213 0 0 0 128.501 83.301 A 58.081 58.081 0 0 0 126.262 86.102 Q 125.283 87.411 124.501 88.64 A 32.749 32.749 0 0 0 124.001 89.451 A 18.153 18.153 0 0 0 123.179 90.978 Q 122.431 92.559 122.32 93.784 A 4.612 4.612 0 0 0 122.301 94.201 A 2.591 2.591 0 0 0 122.39 94.913 Q 122.702 96.001 124.101 96.001 Z M 216.501 96.001 A 5.276 5.276 0 0 0 217.748 95.833 Q 219.001 95.526 220.654 94.655 A 25.772 25.772 0 0 0 221.651 94.101 Q 224.901 92.201 228.901 88.801 Q 232.901 85.401 237.201 81.001 Q 241.845 76.159 244.732 72.635 A 78.618 78.618 0 0 0 244.801 72.551 Q 247.062 69.783 247.56 67.836 A 4.185 4.185 0 0 0 247.701 66.801 Q 247.701 65.296 245.979 65.123 A 4.78 4.78 0 0 0 245.501 65.101 Q 243.688 65.101 241.012 66.416 A 23.841 23.841 0 0 0 240.451 66.701 A 38.021 38.021 0 0 0 237.403 68.497 Q 235.939 69.448 234.394 70.613 A 62.899 62.899 0 0 0 233.951 70.951 A 88.819 88.819 0 0 0 227.978 75.985 A 98.88 98.88 0 0 0 227.101 76.801 A 81.942 81.942 0 0 0 221.972 82.067 A 73.213 73.213 0 0 0 220.901 83.301 A 58.081 58.081 0 0 0 218.662 86.102 Q 217.683 87.411 216.901 88.64 A 32.749 32.749 0 0 0 216.401 89.451 A 18.153 18.153 0 0 0 215.579 90.978 Q 214.831 92.559 214.72 93.784 A 4.612 4.612 0 0 0 214.701 94.201 A 2.591 2.591 0 0 0 214.79 94.913 Q 215.102 96.001 216.501 96.001 Z M 282.701 96.001 A 5.276 5.276 0 0 0 283.948 95.833 Q 285.201 95.526 286.854 94.655 A 25.772 25.772 0 0 0 287.851 94.101 Q 291.101 92.201 295.101 88.801 Q 299.101 85.401 303.401 81.001 Q 308.045 76.159 310.932 72.635 A 78.618 78.618 0 0 0 311.001 72.551 Q 313.262 69.783 313.76 67.836 A 4.185 4.185 0 0 0 313.901 66.801 Q 313.901 65.296 312.179 65.123 A 4.78 4.78 0 0 0 311.701 65.101 Q 309.888 65.101 307.212 66.416 A 23.841 23.841 0 0 0 306.651 66.701 A 38.021 38.021 0 0 0 303.603 68.497 Q 302.139 69.448 300.594 70.613 A 62.899 62.899 0 0 0 300.151 70.951 A 88.819 88.819 0 0 0 294.178 75.985 A 98.88 98.88 0 0 0 293.301 76.801 A 81.942 81.942 0 0 0 288.172 82.067 A 73.213 73.213 0 0 0 287.101 83.301 A 58.081 58.081 0 0 0 284.862 86.102 Q 283.883 87.411 283.101 88.64 A 32.749 32.749 0 0 0 282.601 89.451 A 18.153 18.153 0 0 0 281.779 90.978 Q 281.031 92.559 280.92 93.784 A 4.612 4.612 0 0 0 280.901 94.201 A 2.591 2.591 0 0 0 280.99 94.913 Q 281.302 96.001 282.701 96.001 Z M 156.501 78.901 L 157.501 78.901 L 158.801 77.501 A 781.023 781.023 0 0 1 163.101 72.746 Q 169.796 65.406 174.351 60.851 Q 178.442 56.76 181.611 54.064 A 56.527 56.527 0 0 1 184.301 51.901 L 180.001 51.901 Q 178.623 53.891 174.988 58.168 A 338.289 338.289 0 0 1 172.551 61.001 A 511.646 511.646 0 0 1 171.32 62.412 Q 165.931 68.566 157.701 77.601 L 156.501 78.901 Z M 157.501 78.901 L 156.601 79.901 Q 153.301 83.601 150.301 85.651 Q 147.301 87.701 145.201 87.701 A 5.352 5.352 0 0 1 143.798 87.533 Q 141.601 86.935 141.601 84.201 A 8.781 8.781 0 0 1 142.321 80.757 A 10.577 10.577 0 0 1 142.651 80.051 A 15.187 15.187 0 0 1 143.459 78.676 Q 144.514 77.063 146.301 75.001 L 151.101 75.001 L 145.001 81.801 A 5.227 5.227 0 0 0 143.912 83.344 A 4.698 4.698 0 0 0 143.501 85.301 A 2.591 2.591 0 0 0 143.59 86.013 Q 143.902 87.101 145.301 87.101 A 4.225 4.225 0 0 0 146.461 86.92 Q 147.845 86.522 149.701 85.251 A 25.799 25.799 0 0 0 152.102 83.373 Q 153.278 82.344 154.489 81.074 A 46.519 46.519 0 0 0 155.301 80.201 L 156.501 78.901 L 157.501 78.901 Z M 249.901 78.901 L 249.001 79.901 Q 245.701 83.601 242.701 85.651 Q 239.701 87.701 237.601 87.701 A 5.352 5.352 0 0 1 236.198 87.533 Q 234.001 86.935 234.001 84.201 A 8.781 8.781 0 0 1 234.721 80.757 A 10.577 10.577 0 0 1 235.051 80.051 A 15.187 15.187 0 0 1 235.859 78.676 Q 236.914 77.063 238.701 75.001 L 243.501 75.001 L 237.401 81.801 A 5.227 5.227 0 0 0 236.312 83.344 A 4.698 4.698 0 0 0 235.901 85.301 A 2.591 2.591 0 0 0 235.99 86.013 Q 236.302 87.101 237.701 87.101 A 4.225 4.225 0 0 0 238.861 86.92 Q 240.245 86.522 242.101 85.251 A 25.799 25.799 0 0 0 244.502 83.373 Q 245.678 82.344 246.889 81.074 A 46.519 46.519 0 0 0 247.701 80.201 L 248.901 78.901 L 249.901 78.901 Z M 316.101 78.901 L 315.201 79.901 Q 311.901 83.601 308.901 85.651 Q 305.901 87.701 303.801 87.701 A 5.352 5.352 0 0 1 302.398 87.533 Q 300.201 86.935 300.201 84.201 A 8.781 8.781 0 0 1 300.921 80.757 A 10.577 10.577 0 0 1 301.251 80.051 A 15.187 15.187 0 0 1 302.059 78.676 Q 303.114 77.063 304.901 75.001 L 309.701 75.001 L 303.601 81.801 A 5.227 5.227 0 0 0 302.512 83.344 A 4.698 4.698 0 0 0 302.101 85.301 A 2.591 2.591 0 0 0 302.19 86.013 Q 302.502 87.101 303.901 87.101 A 4.225 4.225 0 0 0 305.061 86.92 Q 306.445 86.522 308.301 85.251 A 25.799 25.799 0 0 0 310.702 83.373 Q 311.878 82.344 313.089 81.074 A 46.519 46.519 0 0 0 313.901 80.201 L 315.101 78.901 L 316.101 78.901 Z M 194.001 89.901 L 194.401 89.401 Q 196.601 91.401 199.601 91.401 A 12.494 12.494 0 0 0 203.46 90.752 Q 205.763 90.006 208.251 88.401 Q 212.901 85.401 217.701 80.101 L 218.701 78.901 L 219.701 78.901 L 218.701 80.101 Q 213.101 86.401 208.501 89.301 A 21.825 21.825 0 0 1 205.107 91.068 Q 202.326 92.201 199.701 92.201 A 9.087 9.087 0 0 1 197.212 91.877 A 6.763 6.763 0 0 1 194.001 89.901 Z M 305.596 40.632 A 2.228 2.228 0 0 0 305.201 40.601 A 3.146 3.146 0 0 0 304.799 40.627 Q 303.915 40.741 302.771 41.34 A 13.701 13.701 0 0 0 301.651 42.001 Q 299.501 43.401 297.851 45.201 Q 296.717 46.438 296.362 47.392 A 2.331 2.331 0 0 0 296.201 48.201 A 1.121 1.121 0 0 0 296.209 48.339 Q 296.291 49.001 297.201 49.001 A 4.61 4.61 0 0 0 298.402 48.83 Q 299.548 48.521 300.901 47.651 Q 303.001 46.301 304.651 44.501 A 12.159 12.159 0 0 0 305.021 44.078 Q 305.807 43.137 306.11 42.342 A 2.646 2.646 0 0 0 306.301 41.401 Q 306.301 40.76 305.596 40.632 Z" vector-effect="non-scaling-stroke"/></g></svg>